<?xml version="1.0" encoding="UTF-8"?>
<svg version="1.1" xmlns="http://www.w3.org/2000/svg" width="1236" height="336">
<path d="M0 0 C407.88 0 815.76 0 1236 0 C1236 110.88 1236 221.76 1236 336 C828.12 336 420.24 336 0 336 C0 225.12 0 114.24 0 0 Z " fill="#FEFEFE" transform="translate(0,0)"/>
<path d="M0 0 C3.87156898 1.78881827 6.503313 4.27337646 9.4375 7.3125 C9.90220703 7.78623047 10.36691406 8.25996094 10.84570312 8.74804688 C12.23322758 10.16266386 13.61663507 11.58131512 15 13 C16.16108837 14.16226542 17.32237059 15.32433822 18.48490906 16.4851532 C20.24228959 18.24225055 21.99567797 20.00328154 23.7487793 21.76464844 C27.57045554 25.60410147 31.39516484 29.44051766 35.22094727 33.27587891 C36.87157402 34.93157044 38.52130737 36.58815311 40.17016602 38.24560547 C42.55251887 40.64003225 44.93803765 43.03126404 47.32421875 45.421875 C48.06379318 46.16661072 48.80336761 46.91134644 49.56535339 47.6786499 C50.24979019 48.36316223 50.93422699 49.04767456 51.6394043 49.75292969 C52.24165329 50.35739929 52.84390228 50.9618689 53.46440125 51.58465576 C54.96271971 53.09691718 54.96271971 53.09691718 57 54 C57 54.66 57 55.32 57 56 C63.86514073 50.23330358 70.18223369 43.94771538 76.5 37.59765625 C77.58693803 36.50884896 78.67410015 35.42026534 79.76147461 34.33189392 C82.59783223 31.49175111 85.43117164 28.6486164 88.26385498 25.80480957 C91.16494253 22.89342109 94.06892713 19.98492533 96.97265625 17.07617188 C102.65124818 11.3869133 108.32664916 5.69448501 114 0 C117.85308766 1.57523746 120.44743914 4.17747444 123.31933594 7.09228516 C123.83685928 7.60951645 124.35438263 8.12674774 124.8875885 8.65965271 C126.59130289 10.36475671 128.28782978 12.07682768 129.984375 13.7890625 C131.16649407 14.974913 132.34905645 16.16032174 133.53204346 17.3453064 C136.64028728 20.46117638 139.74247737 23.58300634 142.84344482 26.70611572 C146.01048502 29.89363619 149.18321387 33.0754832 152.35546875 36.2578125 C158.57589403 42.49966976 164.78993537 48.74783485 171 55 C174.85308766 53.42476254 177.44743914 50.82252556 180.31933594 47.90771484 C181.09562096 47.1318679 181.09562096 47.1318679 181.8875885 46.34034729 C183.59130289 44.63524329 185.28782978 42.92317232 186.984375 41.2109375 C188.16649407 40.025087 189.34905645 38.83967826 190.53204346 37.6546936 C193.64028728 34.53882362 196.74247737 31.41699366 199.84344482 28.29388428 C203.01048502 25.10636381 206.18321387 21.9245168 209.35546875 18.7421875 C215.57589403 12.50033024 221.78993537 6.25216515 228 0 C230.92257439 1.32041445 232.99258209 2.74428065 235.25238037 5.01187134 C236.18197823 5.9373452 236.18197823 5.9373452 237.13035583 6.8815155 C237.79857864 7.55692886 238.46680145 8.23234222 239.15527344 8.92822266 C240.22416557 9.99667671 240.22416557 9.99667671 241.31465149 11.0867157 C243.66766451 13.4411215 246.0135151 15.80253125 248.359375 18.1640625 C249.98989975 19.79831755 251.62086676 21.43213146 253.2522583 23.06552124 C257.54416676 27.36506473 261.83003514 31.67058065 266.11468506 35.97735596 C270.48819822 40.37133023 274.86738079 44.75964603 279.24609375 49.1484375 C287.83629625 57.76008764 296.4201302 66.37805611 305 75 C304.0636169 76.10338218 303.12563812 77.20541029 302.18701172 78.30688477 C301.66485077 78.92072525 301.14268982 79.53456573 300.60470581 80.16700745 C298.23001076 82.87952853 295.69567399 85.41223193 293.125 87.9375 C292.62742187 88.43056641 292.12984375 88.92363281 291.6171875 89.43164062 C290.41379715 90.62345992 289.20724635 91.81208678 288 93 C284.43455466 91.48532946 282.16486519 89.40186314 279.45019531 86.66137695 C278.10794891 85.31406242 278.10794891 85.31406242 276.73858643 83.93952942 C275.76840705 82.95580524 274.79825391 81.97205519 273.828125 80.98828125 C272.82218927 79.97606704 271.81573125 78.96437162 270.80877686 77.95317078 C268.15750978 75.28860986 265.51185691 72.61854994 262.86779785 69.94683838 C258.65197243 65.68790993 254.42956721 61.43553506 250.20363617 57.18663597 C248.73901601 55.71191967 247.27793471 54.23376654 245.81719971 52.75520325 C240.71624305 47.6175346 235.54084674 42.66240331 230 38 C226.97125541 39.35631828 224.8748059 40.87646766 222.53588867 43.22119141 C221.54917427 44.20329086 221.54917427 44.20329086 220.54252625 45.20523071 C219.49087029 46.26766495 219.49087029 46.26766495 218.41796875 47.3515625 C217.68556473 48.08442474 216.95316071 48.81728699 216.19856262 49.57235718 C214.64880153 51.12513829 213.10147055 52.68034803 211.55639648 54.23779297 C209.21187332 56.60043828 206.85958252 58.95511735 204.50585938 61.30859375 C202.99692583 62.82244833 201.48844785 64.33675717 199.98046875 65.8515625 C198.93792183 66.89577866 198.93792183 66.89577866 197.87431335 67.96109009 C193.94484491 71.92812889 190.17901032 75.99033476 186.53526306 80.22175598 C184.21661229 82.90737187 181.82541786 85.49556371 179.375 88.0625 C178.47523438 89.02285156 177.57546875 89.98320312 176.6484375 90.97265625 C174 93 174 93 171.57714844 92.84057617 C168.62742791 91.87847994 167.28604386 90.77549687 165.1171875 88.578125 C164.07884766 87.53398437 164.07884766 87.53398437 163.01953125 86.46875 C161.95798828 85.37046875 161.95798828 85.37046875 160.875 84.25 C160.15957031 83.53328125 159.44414062 82.8165625 158.70703125 82.078125 C153.3740589 76.6554391 153.3740589 76.6554391 151.66186523 73.65527344 C149.46510028 70.14535488 146.72887296 67.46191604 143.79296875 64.5625 C143.18995438 63.95994385 142.58694 63.3573877 141.96565247 62.73657227 C140.69292944 61.46686072 139.41778647 60.19957079 138.14038086 58.93457031 C136.19915824 57.01154893 134.2660025 55.08070171 132.33398438 53.1484375 C131.09161534 51.91098678 129.84879143 50.67399254 128.60546875 49.4375 C128.03338181 48.86652588 127.46129486 48.29555176 126.87187195 47.70727539 C123.39184981 44.26758795 119.80117293 41.08197394 116 38 C113.04500693 39.32900341 110.98725222 40.77299793 108.72265625 43.08203125 C107.82836914 43.98598633 107.82836914 43.98598633 106.91601562 44.90820312 C106.30435547 45.53662109 105.69269531 46.16503906 105.0625 46.8125 C104.15081055 47.73772461 104.15081055 47.73772461 103.22070312 48.68164062 C102.02258212 49.89785623 100.82626284 51.11584963 99.63183594 52.33569336 C96.28045399 55.753762 92.87842775 59.12062822 89.4765625 62.48828125 C81.6410822 70.15927767 81.6410822 70.15927767 74.25 78.25 C71.37925556 81.60415996 68.41910206 84.86528626 65.375 88.0625 C64.47523438 89.02285156 63.57546875 89.98320312 62.6484375 90.97265625 C60 93 60 93 57.57714844 92.84057617 C54.62742791 91.87847994 53.28604386 90.77549687 51.1171875 88.578125 C50.07884766 87.53398437 50.07884766 87.53398437 49.01953125 86.46875 C47.95798828 85.37046875 47.95798828 85.37046875 46.875 84.25 C46.15957031 83.53328125 45.44414062 82.8165625 44.70703125 82.078125 C39.37859763 76.66005418 39.37859763 76.66005418 37.64599609 73.6394043 C35.51863255 70.2281128 32.89769497 67.63019349 30.046875 64.81640625 C29.46842834 64.23841782 28.88998169 63.66042938 28.29400635 63.06492615 C27.07255788 61.84648886 25.84868979 60.63047292 24.62255859 59.41674805 C22.76476656 57.57712217 20.91501199 55.7297114 19.06640625 53.88085938 C17.87286455 52.69223749 16.67886843 51.5040717 15.484375 50.31640625 C14.93932312 49.77246719 14.39427124 49.22852814 13.83270264 48.66810608 C10.04129137 44.92230377 6.08726635 41.41975735 2 38 C-2.46073925 39.40759327 -5.2286164 41.81567945 -8.43286133 45.09228516 C-8.9505307 45.60951645 -9.46820007 46.12674774 -10.0015564 46.65965271 C-11.70226068 48.36243858 -13.3921052 50.07558497 -15.08203125 51.7890625 C-16.26250156 52.97513099 -17.44363819 54.16053667 -18.62541199 55.3453064 C-21.72766335 58.45898897 -24.82079816 61.5815764 -27.91210938 64.70611572 C-31.07070658 67.89545082 -34.23785817 71.07626587 -37.40429688 74.2578125 C-43.61126023 80.49690962 -49.80861675 86.74544181 -56 93 C-59.11966041 91.51136264 -61.24012613 89.99711308 -63.671875 87.5234375 C-64.33574219 86.853125 -64.99960938 86.1828125 -65.68359375 85.4921875 C-66.70646484 84.44417969 -66.70646484 84.44417969 -67.75 83.375 C-68.44738281 82.66859375 -69.14476563 81.9621875 -69.86328125 81.234375 C-71.5801293 79.49400848 -73.29123998 77.74829728 -75 76 C-70.85881237 71.06194816 -66.55359152 66.41372702 -61.98486328 61.87133789 C-60.97405449 60.86031006 -60.97405449 60.86031006 -59.94282532 59.82885742 C-57.7376857 57.62440874 -55.52903641 55.42351316 -53.3203125 53.22265625 C-51.78167206 51.6858829 -50.24325375 50.14888712 -48.70504761 48.61167908 C-44.67298834 44.58342204 -40.63793405 40.5581783 -36.60223389 36.53356934 C-32.47778978 32.41938884 -28.35620569 28.30234535 -24.234375 24.18554688 C-16.15903561 16.12090432 -8.08052706 8.05944443 0 0 Z " fill="#EB7B61" transform="translate(153,228)"/>
<path d="M0 0 C3.85308766 1.57523746 6.44743914 4.17747444 9.31933594 7.09228516 C9.83685928 7.60951645 10.35438263 8.12674774 10.8875885 8.65965271 C12.59130289 10.36475671 14.28782978 12.07682768 15.984375 13.7890625 C17.16649407 14.974913 18.34905645 16.16032174 19.53204346 17.3453064 C22.64028728 20.46117638 25.74247737 23.58300634 28.84344482 26.70611572 C32.01048502 29.89363619 35.18321387 33.0754832 38.35546875 36.2578125 C44.57589403 42.49966976 50.78993537 48.74783485 57 55 C60.85308766 53.42476254 63.44743914 50.82252556 66.31933594 47.90771484 C67.09562096 47.1318679 67.09562096 47.1318679 67.8875885 46.34034729 C69.59130289 44.63524329 71.28782978 42.92317232 72.984375 41.2109375 C74.16649407 40.025087 75.34905645 38.83967826 76.53204346 37.6546936 C79.64028728 34.53882362 82.74247737 31.41699366 85.84344482 28.29388428 C89.01048502 25.10636381 92.18321387 21.9245168 95.35546875 18.7421875 C101.57589403 12.50033024 107.78993537 6.25216515 114 0 C117.85308766 1.57523746 120.44743914 4.17747444 123.31933594 7.09228516 C123.83685928 7.60951645 124.35438263 8.12674774 124.8875885 8.65965271 C126.59130289 10.36475671 128.28782978 12.07682768 129.984375 13.7890625 C131.16649407 14.974913 132.34905645 16.16032174 133.53204346 17.3453064 C136.64028728 20.46117638 139.74247737 23.58300634 142.84344482 26.70611572 C146.01048502 29.89363619 149.18321387 33.0754832 152.35546875 36.2578125 C158.57589403 42.49966976 164.78993537 48.74783485 171 55 C174.85308766 53.42476254 177.44743914 50.82252556 180.31933594 47.90771484 C181.09562096 47.1318679 181.09562096 47.1318679 181.8875885 46.34034729 C183.59130289 44.63524329 185.28782978 42.92317232 186.984375 41.2109375 C188.16649407 40.025087 189.34905645 38.83967826 190.53204346 37.6546936 C193.64028728 34.53882362 196.74247737 31.41699366 199.84344482 28.29388428 C203.01048502 25.10636381 206.18321387 21.9245168 209.35546875 18.7421875 C215.57589403 12.50033024 221.78993537 6.25216515 228 0 C230.92257439 1.32041445 232.99258209 2.74428065 235.25238037 5.01187134 C236.18197823 5.9373452 236.18197823 5.9373452 237.13035583 6.8815155 C237.79857864 7.55692886 238.46680145 8.23234222 239.15527344 8.92822266 C240.22416557 9.99667671 240.22416557 9.99667671 241.31465149 11.0867157 C243.66766451 13.4411215 246.0135151 15.80253125 248.359375 18.1640625 C249.98989975 19.79831755 251.62086676 21.43213146 253.2522583 23.06552124 C257.54416676 27.36506473 261.83003514 31.67058065 266.11468506 35.97735596 C270.48819822 40.37133023 274.86738079 44.75964603 279.24609375 49.1484375 C287.83629625 57.76008764 296.4201302 66.37805611 305 75 C304.0636169 76.10338218 303.12563812 77.20541029 302.18701172 78.30688477 C301.66485077 78.92072525 301.14268982 79.53456573 300.60470581 80.16700745 C298.23001076 82.87952853 295.69567399 85.41223193 293.125 87.9375 C292.62742187 88.43056641 292.12984375 88.92363281 291.6171875 89.43164062 C290.41379715 90.62345992 289.20724635 91.81208678 288 93 C284.38514958 91.47252841 282.09194324 89.32859659 279.3425293 86.55371094 C278.42444992 85.63225281 277.50637054 84.71079468 276.56047058 83.76141357 C275.56502658 82.75242708 274.56961 81.74341354 273.57421875 80.734375 C272.5434665 79.69734548 271.51219282 78.66083399 270.48042297 77.62481689 C267.76465739 74.89575805 265.05450721 72.16119629 262.34594727 69.42498779 C258.02317843 65.05910581 253.69379462 60.69981212 249.36094093 56.34394073 C247.85695673 54.82983334 246.35649355 53.31230275 244.85636902 51.79437256 C240.06469356 46.96895822 235.25046635 42.32386005 230 38 C226.97125541 39.35631828 224.8748059 40.87646766 222.53588867 43.22119141 C221.54917427 44.20329086 221.54917427 44.20329086 220.54252625 45.20523071 C219.49087029 46.26766495 219.49087029 46.26766495 218.41796875 47.3515625 C217.68556473 48.08442474 216.95316071 48.81728699 216.19856262 49.57235718 C214.64880153 51.12513829 213.10147055 52.68034803 211.55639648 54.23779297 C209.21187332 56.60043828 206.85958252 58.95511735 204.50585938 61.30859375 C202.99692583 62.82244833 201.48844785 64.33675717 199.98046875 65.8515625 C198.93792183 66.89577866 198.93792183 66.89577866 197.87431335 67.96109009 C193.94484491 71.92812889 190.17901032 75.99033476 186.53526306 80.22175598 C184.21661229 82.90737187 181.82541786 85.49556371 179.375 88.0625 C178.47523438 89.02285156 177.57546875 89.98320313 176.6484375 90.97265625 C174 93 174 93 171.57714844 92.84057617 C168.62742791 91.87847994 167.28604386 90.77549687 165.1171875 88.578125 C164.07884766 87.53398437 164.07884766 87.53398437 163.01953125 86.46875 C161.95798828 85.37046875 161.95798828 85.37046875 160.875 84.25 C160.15957031 83.53328125 159.44414062 82.8165625 158.70703125 82.078125 C155.23888926 78.55164044 152.51087256 75.26848335 150 71 C147.97491471 68.73044496 145.80683103 66.61794859 143.625 64.5 C143.06039062 63.94441406 142.49578125 63.38882813 141.9140625 62.81640625 C140.79622586 61.7166827 139.67669763 60.61867576 138.55541992 59.52246094 C135.18480755 56.22327105 131.87198806 52.87123019 128.58984375 49.484375 C127.37251379 48.23946798 126.15506388 46.99467824 124.9375 45.75 C124.02000977 44.79480469 124.02000977 44.79480469 123.08398438 43.8203125 C122.18969727 42.91152344 122.18969727 42.91152344 121.27734375 41.984375 C120.47671509 41.16018066 120.47671509 41.16018066 119.65991211 40.31933594 C117.68933903 38.75307959 116.52494713 38.13321064 114 38 C111.97992845 39.29476425 111.97992845 39.29476425 110.14453125 41.296875 C109.08782227 42.36421875 109.08782227 42.36421875 108.00976562 43.453125 C107.28466797 44.21109375 106.55957031 44.9690625 105.8125 45.75 C104.70745117 46.86375 104.70745117 46.86375 103.58007812 48 C99.50314811 51.99331682 99.50314811 51.99331682 97 57 C95.94425781 57.62841797 95.94425781 57.62841797 94.8671875 58.26953125 C91.05498921 60.57035393 88.22665708 63.51904185 85.125 66.6875 C84.50004639 67.31889893 83.87509277 67.95029785 83.23120117 68.60083008 C80.16367067 71.71967987 77.15881122 74.86334091 74.3125 78.1875 C71.41850642 81.56014392 68.43912304 84.84402842 65.375 88.0625 C64.47523438 89.02285156 63.57546875 89.98320313 62.6484375 90.97265625 C60 93 60 93 57.57714844 92.84057617 C54.62742791 91.87847994 53.28604386 90.77549687 51.1171875 88.578125 C50.07884766 87.53398437 50.07884766 87.53398437 49.01953125 86.46875 C47.95798828 85.37046875 47.95798828 85.37046875 46.875 84.25 C46.15957031 83.53328125 45.44414062 82.8165625 44.70703125 82.078125 C39.36952264 76.65082653 39.36952264 76.65082653 37.67773438 73.67114258 C35.41123838 70.06262502 32.56008951 67.29363153 29.5390625 64.30859375 C28.91148041 63.68146988 28.28389832 63.05434601 27.63729858 62.40821838 C26.313301 61.08723255 24.98688316 59.76866859 23.65820312 58.45239258 C21.63355116 56.44597415 19.61699321 54.43169224 17.6015625 52.41601562 C16.31036608 51.12973612 15.01871435 49.84391346 13.7265625 48.55859375 C13.12744049 47.96058456 12.52831848 47.36257538 11.91104126 46.7464447 C8.74712735 43.61791002 5.5419828 40.7082571 2 38 C-2.46073925 39.40759327 -5.2286164 41.81567945 -8.43286133 45.09228516 C-8.9505307 45.60951645 -9.46820007 46.12674774 -10.0015564 46.65965271 C-11.70226068 48.36243858 -13.3921052 50.07558497 -15.08203125 51.7890625 C-16.26250156 52.97513099 -17.44363819 54.16053667 -18.62541199 55.3453064 C-21.72766335 58.45898897 -24.82079816 61.5815764 -27.91210938 64.70611572 C-31.07070658 67.89545082 -34.23785817 71.07626587 -37.40429688 74.2578125 C-43.61126023 80.49690962 -49.80861675 86.74544181 -56 93 C-59.11966041 91.51136264 -61.24012613 89.99711308 -63.671875 87.5234375 C-64.33574219 86.853125 -64.99960938 86.1828125 -65.68359375 85.4921875 C-66.70646484 84.44417969 -66.70646484 84.44417969 -67.75 83.375 C-68.44738281 82.66859375 -69.14476563 81.9621875 -69.86328125 81.234375 C-71.5801293 79.49400848 -73.29123998 77.74829728 -75 76 C-70.85881237 71.06194816 -66.55359152 66.41372702 -61.98486328 61.87133789 C-60.97405449 60.86031006 -60.97405449 60.86031006 -59.94282532 59.82885742 C-57.7376857 57.62440874 -55.52903641 55.42351316 -53.3203125 53.22265625 C-51.78167206 51.6858829 -50.24325375 50.14888712 -48.70504761 48.61167908 C-44.67298834 44.58342204 -40.63793405 40.5581783 -36.60223389 36.53356934 C-32.47778978 32.41938884 -28.35620569 28.30234535 -24.234375 24.18554688 C-16.15903561 16.12090432 -8.08052706 8.05944443 0 0 Z " fill="#EB7B61" transform="translate(153,27)"/>
<path d="M0 0 C3.78946188 1.76552862 6.4103012 4.13978156 9.31933594 7.09228516 C9.83685928 7.60951645 10.35438263 8.12674774 10.8875885 8.65965271 C12.59130289 10.36475671 14.28782978 12.07682768 15.984375 13.7890625 C17.16649407 14.974913 18.34905645 16.16032174 19.53204346 17.3453064 C22.64028728 20.46117638 25.74247737 23.58300634 28.84344482 26.70611572 C32.01048502 29.89363619 35.18321387 33.0754832 38.35546875 36.2578125 C44.57589403 42.49966976 50.78993537 48.74783485 57 55 C60.85308766 53.42476254 63.44743914 50.82252556 66.31933594 47.90771484 C67.09562096 47.1318679 67.09562096 47.1318679 67.8875885 46.34034729 C69.59130289 44.63524329 71.28782978 42.92317232 72.984375 41.2109375 C74.16649407 40.025087 75.34905645 38.83967826 76.53204346 37.6546936 C79.64028728 34.53882362 82.74247737 31.41699366 85.84344482 28.29388428 C89.01048502 25.10636381 92.18321387 21.9245168 95.35546875 18.7421875 C101.57589403 12.50033024 107.78993537 6.25216515 114 0 C117.85308766 1.57523746 120.44743914 4.17747444 123.31933594 7.09228516 C123.83685928 7.60951645 124.35438263 8.12674774 124.8875885 8.65965271 C126.59130289 10.36475671 128.28782978 12.07682768 129.984375 13.7890625 C131.16649407 14.974913 132.34905645 16.16032174 133.53204346 17.3453064 C136.64028728 20.46117638 139.74247737 23.58300634 142.84344482 26.70611572 C146.01048502 29.89363619 149.18321387 33.0754832 152.35546875 36.2578125 C158.57589403 42.49966976 164.78993537 48.74783485 171 55 C174.85308766 53.42476254 177.44743914 50.82252556 180.31933594 47.90771484 C181.09562096 47.1318679 181.09562096 47.1318679 181.8875885 46.34034729 C183.59130289 44.63524329 185.28782978 42.92317232 186.984375 41.2109375 C188.16649407 40.025087 189.34905645 38.83967826 190.53204346 37.6546936 C193.64028728 34.53882362 196.74247737 31.41699366 199.84344482 28.29388428 C203.01048502 25.10636381 206.18321387 21.9245168 209.35546875 18.7421875 C215.57589403 12.50033024 221.78993537 6.25216515 228 0 C230.90297734 1.31365937 232.96908109 2.72072123 235.2144165 4.97390747 C235.82573425 5.58247589 236.437052 6.19104431 237.06689453 6.8180542 C238.05520264 7.81714813 238.05520264 7.81714813 239.06347656 8.83642578 C239.76631775 9.53897491 240.46915894 10.24152405 241.19329834 10.96536255 C243.51384625 13.28730311 245.8272308 15.61624628 248.140625 17.9453125 C249.74872947 19.55714732 251.35727625 21.16854097 252.96624756 22.7795105 C257.19897265 27.01987029 261.42565715 31.26620206 265.65112305 35.51379395 C269.96431271 39.84744543 274.28317249 44.17543788 278.6015625 48.50390625 C287.07327591 56.99706673 295.53862033 65.49654528 304 74 C302.51136264 77.11966041 300.99711308 79.24012613 298.5234375 81.671875 C297.853125 82.33574219 297.1828125 82.99960938 296.4921875 83.68359375 C295.44417969 84.70646484 295.44417969 84.70646484 294.375 85.75 C293.31539063 86.79607422 293.31539063 86.79607422 292.234375 87.86328125 C290.49400848 89.5801293 288.74829728 91.29123998 287 93 C280.38927013 87.5664118 274.40785804 81.53553957 268.37890625 75.4765625 C267.26811831 74.36390615 266.1571069 73.25147284 265.04588318 72.13925171 C262.14211066 69.2316873 259.24135564 66.32113095 256.34124756 63.40991211 C253.37321737 60.43159571 250.40230338 57.45615894 247.43164062 54.48046875 C241.61828917 48.65643877 235.80812666 42.8292405 230 37 C226.93098235 38.37039214 224.81550737 39.93208552 222.44067383 42.30053711 C221.4249102 43.30684425 221.4249102 43.30684425 220.3886261 44.33348083 C219.6686998 45.0574556 218.9487735 45.78143036 218.20703125 46.52734375 C217.46039719 47.27206436 216.71376312 48.01678497 215.94450378 48.78407288 C214.36947718 50.35773981 212.7969682 51.93393 211.22680664 53.51245117 C208.8181204 55.9318546 206.39894693 58.34039997 203.97851562 60.74804688 C202.44987901 62.27800483 200.92186276 63.80858293 199.39453125 65.33984375 C198.30553276 66.42276955 198.30553276 66.42276955 197.1945343 67.52757263 C196.52681503 68.20159622 195.85909576 68.87561981 195.17114258 69.57006836 C194.58142166 70.16138046 193.99170074 70.75269257 193.3841095 71.36192322 C191.77286591 73.06349513 191.77286591 73.06349513 191 76 C189.50390625 77.47265625 189.50390625 77.47265625 187.5625 79.0625 C182.41363096 83.41707889 177.72150936 88.19141362 173 93 C169.98611927 91.64941886 167.8965323 90.14395225 165.57421875 87.8046875 C164.94193359 87.17046875 164.30964844 86.53625 163.65820312 85.8828125 C163.00787109 85.22023438 162.35753906 84.55765625 161.6875 83.875 C160.7294043 82.9159375 160.7294043 82.9159375 159.75195312 81.9375 C156.62846738 78.78553262 153.62491881 75.57838699 150.72314453 72.22094727 C147.17026913 68.14271362 143.43505245 64.29004527 139.60546875 60.47265625 C138.93203934 59.79827011 138.25860992 59.12388397 137.56477356 58.42906189 C136.1567956 57.02040932 134.74757776 55.61299501 133.3371582 54.20678711 C131.17216396 52.04720227 129.01262744 49.88226118 126.85351562 47.71679688 C125.47948763 46.3434288 124.10514994 44.97037049 122.73046875 43.59765625 C122.08466354 42.94982681 121.43885834 42.30199738 120.77348328 41.63453674 C120.17558487 41.0397905 119.57768646 40.44504425 118.96166992 39.83227539 C118.43651291 39.30791397 117.9113559 38.78355255 117.37028503 38.24330139 C115.99982008 36.88748638 115.99982008 36.88748638 114 36 C113.75950928 36.5779834 113.51901855 37.1559668 113.27124023 37.75146484 C111.74833341 40.44514102 110.01114453 41.96512153 107.66015625 43.9765625 C101.90302963 49.03256037 96.4617405 54.35212636 91.04663086 59.76806641 C89.41341408 61.39905303 87.77228763 63.02181358 86.13085938 64.64453125 C85.08545101 65.68701237 84.04051085 66.72996327 82.99609375 67.7734375 C82.26343544 68.49531754 82.26343544 68.49531754 81.51597595 69.23178101 C79.26669954 71.49649926 78.02638146 72.92085561 77 76 C75.50390625 77.47265625 75.50390625 77.47265625 73.5625 79.0625 C68.41363096 83.41707889 63.72150936 88.19141362 59 93 C55.98611927 91.64941886 53.8965323 90.14395225 51.57421875 87.8046875 C50.94193359 87.17046875 50.30964844 86.53625 49.65820312 85.8828125 C49.00787109 85.22023438 48.35753906 84.55765625 47.6875 83.875 C46.7294043 82.9159375 46.7294043 82.9159375 45.75195312 81.9375 C42.62941647 78.78649036 39.62738391 75.58046018 36.72753906 72.22314453 C33.1566563 68.1241641 29.39342319 64.26474683 25.53515625 60.4375 C24.85698349 59.76074219 24.17881073 59.08398438 23.48008728 58.38671875 C21.34325695 56.25542325 19.20295177 54.12765782 17.0625 52 C15.60067877 50.54320221 14.13908813 49.08617299 12.67773438 47.62890625 C9.121146 44.08326027 5.56143984 40.54077261 2 37 C-1.89395116 38.58399589 -4.51152235 41.24196943 -7.41113281 44.18408203 C-8.20204819 44.97455933 -8.20204819 44.97455933 -9.00894165 45.78100586 C-10.74512072 47.51857476 -12.474114 49.26311314 -14.203125 51.0078125 C-15.40766437 52.21608322 -16.61264697 53.42391222 -17.8180542 54.63131714 C-20.98548106 57.80637077 -24.14685513 60.98738522 -27.30700684 64.16967773 C-30.53437089 67.41752076 -33.76742228 70.65969133 -37 73.90234375 C-43.33891303 80.26268982 -49.67144624 86.62934753 -56 93 C-57.10338218 92.0636169 -58.20541029 91.12563812 -59.30688477 90.18701172 C-59.92072525 89.66485077 -60.53456573 89.14268982 -61.16700745 88.60470581 C-63.87952853 86.23001076 -66.41223193 83.69567399 -68.9375 81.125 C-69.43056641 80.62742187 -69.92363281 80.12984375 -70.43164062 79.6171875 C-71.62345992 78.41379715 -72.81208678 77.20724635 -74 76 C-72.68634063 73.09702266 -71.27927877 71.03091891 -69.02609253 68.7855835 C-68.41752411 68.17426575 -67.80895569 67.562948 -67.1819458 66.93310547 C-66.18285187 65.94479736 -66.18285187 65.94479736 -65.16357422 64.93652344 C-64.46102509 64.23368225 -63.75847595 63.53084106 -63.03463745 62.80670166 C-60.71269689 60.48615375 -58.38375372 58.1727692 -56.0546875 55.859375 C-54.44285268 54.25127053 -52.83145903 52.64272375 -51.2204895 51.03375244 C-46.98012971 46.80102735 -42.73379794 42.57434285 -38.48620605 38.34887695 C-34.15255457 34.03568729 -29.82456212 29.71682751 -25.49609375 25.3984375 C-17.00293327 16.92672409 -8.50345472 8.46137967 0 0 Z " fill="#EB795F" transform="translate(153,128)"/>
<path d="M0 0 C2.5249394 1.2624697 2.65141083 2.10986636 3.70141602 4.68554688 C4.19047173 5.87076431 4.19047173 5.87076431 4.68940735 7.07992554 C5.04069199 7.95073761 5.39197662 8.82154968 5.75390625 9.71875 C6.1265007 10.62670319 6.49909515 11.53465637 6.88298035 12.47012329 C8.11564072 15.47760434 9.33892929 18.48881081 10.5625 21.5 C11.42080385 23.59779871 12.27986185 25.69528902 13.13964844 27.79248047 C14.90507557 32.09986601 16.66762185 36.40841308 18.42822266 40.71777344 C21.82485909 49.02404586 25.26047457 57.3140366 28.70217896 65.60171509 C29.75516526 68.13743859 30.8072541 70.67353285 31.85913086 73.2097168 C37.04634769 85.71457536 42.24368292 98.21524113 47.45996094 110.70800781 C50.32193633 117.56359047 53.17746587 124.42159183 56.00790405 131.29026794 C57.34696774 134.538776 58.68981598 137.78571384 60.03289795 141.03256226 C60.66404258 142.56127063 61.29339844 144.0907191 61.92071533 145.6210022 C69.8357326 167.00689712 69.8357326 167.00689712 85 183 C85 183.33 85 183.66 85 184 C71.47 184 57.94 184 44 184 C45.32 182.68 46.64 181.36 48 180 C50.44192998 172.67421006 48.61056112 166.84720463 45.8125 160 C45.47025391 159.13221924 45.12800781 158.26443848 44.77539062 157.37036133 C43.53363432 154.23996661 42.26769877 151.11997945 41 148 C40.44805689 146.63344131 39.89648114 145.2667342 39.34521484 143.89990234 C35.58825487 134.58965299 31.79680751 125.29426839 28 116 C-3.68 115.505 -3.68 115.505 -36 115 C-36.99 117.97 -37.98 120.94 -39 124 C-39.55071091 125.49365843 -40.11361974 126.98304219 -40.70166016 128.46240234 C-40.99851715 129.21282806 -41.29537415 129.96325378 -41.60122681 130.73641968 C-41.91071259 131.51176056 -42.22019836 132.28710144 -42.5390625 133.0859375 C-42.86538666 133.90953766 -43.19171082 134.73313782 -43.52792358 135.58169556 C-44.55798839 138.18038102 -45.59131741 140.77775173 -46.625 143.375 C-47.6652452 145.99389667 -48.70479259 148.6130674 -49.74349976 151.23257446 C-50.38686631 152.85454202 -51.03121652 154.47611983 -51.67666626 156.09725952 C-53.65770637 161.08484436 -55.15102634 165.06128267 -55.1875 170.4375 C-55.20876953 171.85869141 -55.20876953 171.85869141 -55.23046875 173.30859375 C-54.78143758 178.55236455 -52.80515497 180.19484503 -49 184 C-60.55 184 -72.1 184 -84 184 C-82.35 182.35 -80.7 180.7 -79 179 C-74.72308193 174.38224785 -71.95616045 169.11299063 -69.3203125 163.4375 C-68.799851 162.32299469 -68.799851 162.32299469 -68.26887512 161.18597412 C-64.56789556 153.18377179 -61.16324183 145.06191449 -57.79150391 136.91674805 C-55.84163991 132.20680457 -53.87848615 127.50239137 -51.91796875 122.796875 C-51.31026138 121.33664917 -51.31026138 121.33664917 -50.6902771 119.84692383 C-46.33256854 109.38142729 -41.91749004 98.94036728 -37.5 88.5 C-31.49923179 74.3129681 -25.53146436 60.11267197 -19.59564209 45.89834595 C-13.18399722 30.54469506 -6.72333839 15.22042183 0 0 Z " fill="#EB7C62" transform="translate(571,93)"/>
<path d="M0 0 C9.29005911 -0.30094558 17.2584188 1.3989467 24.578125 7.35546875 C33.03527658 15.74002675 35.36889222 25.62852281 35.52441406 37.19580078 C35.53229691 39.06151317 35.53703676 40.9272408 35.5390625 42.79296875 C35.55737444 44.83594879 35.57694323 46.87891789 35.59765625 48.921875 C35.6266947 52.11265916 35.64844017 55.30272702 35.64892578 58.49365234 C35.65226006 61.59405667 35.68678067 64.69284544 35.7265625 67.79296875 C35.7194928 68.74309845 35.7124231 69.69322815 35.70513916 70.67214966 C35.78605984 75.08252529 35.94801028 78.2008905 38.76074219 81.72607422 C43.37803184 85.98693851 48.31139221 86.42971081 54.3984375 87.16015625 C54.3984375 87.82015625 54.3984375 88.48015625 54.3984375 89.16015625 C52.63654318 90.57954063 50.81278893 91.92282168 48.9609375 93.22265625 C45.53325599 95.51128244 45.53325599 95.51128244 42.3984375 98.16015625 C36.01357402 99.03138518 31.3583574 98.34415484 26.08984375 94.59765625 C23.21026491 92.15034675 21.08413039 89.53154203 19.3984375 86.16015625 C18.7796875 87.04703125 18.1609375 87.93390625 17.5234375 88.84765625 C13.44326992 93.79544567 7.36355895 96.17178243 1.3984375 98.16015625 C-18.81470879 99.58505075 -18.81470879 99.58505075 -26.6015625 93.16015625 C-33.63673861 85.86537954 -35.04223897 80.42672201 -34.94140625 70.421875 C-34.43961292 65.60581262 -32.7989643 62.71645009 -29.6015625 59.16015625 C-29.116875 58.61875 -28.6321875 58.07734375 -28.1328125 57.51953125 C-16.59178456 46.31794531 0.49098084 45.87430656 15.609375 46.08984375 C16.52976562 46.11304688 17.45015625 46.13625 18.3984375 46.16015625 C18.16815098 43.32399601 17.91484617 40.49296843 17.6484375 37.66015625 C17.555625 36.47292969 17.555625 36.47292969 17.4609375 35.26171875 C16.78637877 28.40370501 14.97830325 22.67387159 9.9609375 17.78515625 C3.34381011 13.58892913 -2.91932405 13.31252251 -10.6015625 14.16015625 C-16.22890864 15.792922 -20.36204379 18.19636922 -23.6640625 23.09765625 C-25.43378649 26.3816159 -26.32029978 29.40998665 -26.6015625 33.16015625 C-29.69381408 30.20235039 -30.78198466 28.33083615 -30.9765625 24.03515625 C-30.87404892 17.63830876 -28.05597913 13.7224029 -23.734375 9.2109375 C-16.58342792 2.57474731 -9.54789624 0.5877834 0 0 Z " fill="#EC7D63" transform="translate(1122.6015625,180.83984375)"/>
<path d="M0 0 C9.40639626 6.89688582 15.84021519 15.92852214 18.25 27.375 C18.25 30.345 18.25 33.315 18.25 36.375 C-3.53 36.375 -25.31 36.375 -47.75 36.375 C-46.76 42.645 -45.77 48.915 -44.75 55.375 C-43.76 55.375 -42.77 55.375 -41.75 55.375 C-42.08 56.365 -42.41 57.355 -42.75 58.375 C-39.15797747 66.26542605 -32.78077793 71.90822303 -24.875 75.25 C-15.41342076 77.99797171 -2.79412128 78.03167792 6.1328125 73.72265625 C10.69528481 70.81849952 14.44437165 67.18062835 18.25 63.375 C16.89628333 72.70060374 12.82083259 79.83800893 5.375 85.75 C-2.76292427 91.1248964 -9.48200368 93.02902885 -19.25 92.875 C-20.23097656 92.89046875 -21.21195313 92.9059375 -22.22265625 92.921875 C-33.37538943 92.86247296 -41.8122932 88.26698858 -49.8125 80.625 C-61.3377299 68.66071372 -63.3604733 55.43959374 -63.0859375 39.390625 C-62.48123554 26.21775689 -57.28709237 15.09456132 -48.171875 5.56640625 C-34.67926674 -6.642228 -15.92617859 -9.86820016 0 0 Z " fill="#EB7C63" transform="translate(931.75,186.625)"/>
<path d="M0 0 C9.24 0 18.48 0 28 0 C28.02578125 4.50398437 28.0515625 9.00796875 28.078125 13.6484375 C28.10332257 16.51958637 28.12967754 19.3906329 28.16015625 22.26171875 C28.20831421 26.80843349 28.25242459 31.35491104 28.27099609 35.90185547 C28.28625676 39.572065 28.32086536 43.24164959 28.36830902 46.91157913 C28.38302677 48.30438395 28.39103544 49.69727805 28.39188385 51.09016037 C28.40238876 59.69711405 28.47718551 68.72358371 34.3760376 75.60531616 C39.72543846 80.35952838 45.0891139 82.70682365 52.203125 82.48046875 C58.17077416 81.45529997 64.31622452 78.70976847 68.61328125 74.37109375 C71.38208504 70.35381116 72.12643034 66.59929665 72.17700195 61.8293457 C72.18983719 60.77427322 72.20267242 59.71920074 72.21589661 58.63215637 C72.22328354 57.49155258 72.23067047 56.35094879 72.23828125 55.17578125 C72.25038887 53.41272896 72.25038887 53.41272896 72.26274109 51.61405945 C72.27658125 49.12333653 72.2873037 46.63259466 72.29516602 44.1418457 C72.31235358 40.3448456 72.35623928 36.54872182 72.40039062 32.75195312 C72.4105199 30.33073556 72.41903527 27.9095106 72.42578125 25.48828125 C72.45204338 23.7925573 72.45204338 23.7925573 72.47883606 22.06257629 C72.45084329 11.81650087 70.25394183 7.25394183 63 0 C71.91 0 80.82 0 90 0 C90.0093457 2.20502197 90.01869141 4.41004395 90.02832031 6.68188477 C90.06214741 13.98226538 90.1177281 21.28236503 90.18390274 28.58252048 C90.22334546 33.00693264 90.25554955 37.43114673 90.27099609 41.85571289 C90.28618397 46.12886805 90.32066682 50.40147857 90.36830902 54.67439079 C90.38310095 56.3013427 90.39103976 57.92837238 90.39188385 59.55539131 C90.39426199 61.84163013 90.42140626 64.12637403 90.45410156 66.41235352 C90.46298401 67.71141129 90.47186646 69.01046906 90.48101807 70.34889221 C91.13062881 74.91899129 92.34251241 77.23693374 95 81 C97.38573178 82.15808871 99.34987079 82.54132379 102 83 C100.53614849 85.92770302 98.50956545 86.29386747 95.5390625 87.6015625 C94.42789063 88.09140625 93.31671875 88.58125 92.171875 89.0859375 C91.00140625 89.59382813 89.8309375 90.10171875 88.625 90.625 C87.46226562 91.140625 86.29953125 91.65625 85.1015625 92.1875 C76.38727679 96 76.38727679 96 73 96 C72.505 88.575 72.505 88.575 72 81 C71.21625 82.03125 70.4325 83.0625 69.625 84.125 C64.29063034 90.35685839 56.2266865 95.27458274 47.98193359 96.23510742 C38.91709502 96.79824763 30.18557074 97.306649 23 91 C22.35804688 90.44183594 21.71609375 89.88367188 21.0546875 89.30859375 C13.59978793 81.83809816 11.56353219 71.91308649 11.49694824 61.66378784 C11.50826782 60.57590973 11.5195874 59.48803162 11.53125 58.3671875 C11.52420044 57.20929718 11.51715088 56.05140686 11.5098877 54.85842896 C11.4880352 51.19705564 11.49081382 47.53641857 11.5 43.875 C11.51209878 39.03867093 11.49824309 34.20342254 11.46875 29.3671875 C11.48006958 28.27526093 11.49138916 27.18333435 11.50305176 26.05831909 C11.45023444 17.9770352 10.10833606 10.86187207 4.9375 4.4375 C2.95818504 2.81311272 2.95818504 2.81311272 0 2 C0 1.34 0 0.68 0 0 Z " fill="#EC7C63" transform="translate(666,183)"/>
<path d="M0 0 C0.00146656 0.89176343 0.00293312 1.78352686 0.00444412 2.70231342 C0.04154075 24.42882491 0.10059342 46.15518076 0.18390274 67.88156605 C0.22366486 78.38841308 0.25607173 88.89518552 0.27099609 99.40209961 C0.28402725 108.56290517 0.31102931 117.7235464 0.35461307 126.8842594 C0.37719491 131.73211562 0.39291265 136.5797694 0.39188385 141.42768288 C0.3911353 145.99716376 0.40916403 150.56619772 0.44116783 155.1355629 C0.44963824 156.80636873 0.45143632 158.47722487 0.44580269 160.14804268 C0.41320577 171.30808856 1.07735263 180.7698035 8 190 C-3.22 190 -14.44 190 -26 190 C-24.35 188.02 -22.7 186.04 -21 184 C-17.18549565 176.64850094 -17.57467808 169.27052192 -17.61181641 161.14208984 C-17.60774611 159.64327106 -17.60240166 158.14445529 -17.59588623 156.64564514 C-17.58226362 152.59411682 -17.58748962 148.54281886 -17.59702349 144.49128675 C-17.60464357 140.24334075 -17.59756823 135.99541386 -17.59286499 131.74746704 C-17.58741546 124.61741612 -17.5945792 117.4874586 -17.60888672 110.35742188 C-17.62522424 102.12075846 -17.61991355 93.88431772 -17.6034075 85.64765966 C-17.58978469 78.56549056 -17.58787648 71.4833884 -17.59572351 64.40121043 C-17.60039405 60.17571464 -17.60104169 55.95032346 -17.59111404 51.72483444 C-17.58243461 47.75369038 -17.58848395 43.78283305 -17.60579681 39.81171989 C-17.60975592 38.35648639 -17.60863746 36.90122866 -17.60200882 35.44600487 C-17.59378158 33.4560674 -17.60593933 31.46607706 -17.61904907 29.47616577 C-17.62074569 27.80763581 -17.62074569 27.80763581 -17.62247658 26.10539818 C-18.13812393 21.8638326 -19.42589332 18.26063362 -22.82421875 15.5390625 C-23.43910156 15.23742187 -24.05398438 14.93578125 -24.6875 14.625 C-26.3271875 13.820625 -26.3271875 13.820625 -28 13 C-25.10274456 10.6794155 -22.24358081 9.05272382 -18.8671875 7.51953125 C-17.89652344 7.07802734 -16.92585937 6.63652344 -15.92578125 6.18164062 C-14.91902344 5.72982422 -13.91226563 5.27800781 -12.875 4.8125 C-11.86050781 4.34908203 -10.84601562 3.88566406 -9.80078125 3.40820312 C-2.26157493 0 -2.26157493 0 0 0 Z " fill="#EC7E65" transform="translate(998,87)"/>
<path d="M0 0 C0 6.6 0 13.2 0 20 C-1.423125 19.175 -2.84625 18.35 -4.3125 17.5 C-11.03642977 14.14280386 -17.16334418 13.76937455 -24.3125 16.0625 C-32.22323167 21.76558563 -36.19469288 29.50820208 -38 39 C-38.25805874 41.85757659 -38.28131909 44.69069432 -38.265625 47.55859375 C-38.26753845 48.34718277 -38.2694519 49.13577179 -38.27142334 49.94825745 C-38.27277522 51.60458702 -38.26914903 53.26092754 -38.26074219 54.91723633 C-38.25004265 57.42749274 -38.26066402 59.9370313 -38.2734375 62.44726562 C-38.27211545 64.06770989 -38.26955211 65.68815371 -38.265625 67.30859375 C-38.26967346 68.04637558 -38.27372192 68.78415741 -38.27789307 69.54429626 C-38.19750124 78.65252339 -36.6360928 87.3639072 -30 94 C-41.22 94 -52.44 94 -64 94 C-62.35 92.02 -60.7 90.04 -59 88 C-55.76594369 80.09565908 -55.55493091 71.68769063 -55.6015625 63.26171875 C-55.59869232 62.09671341 -55.59582214 60.93170807 -55.59286499 59.73139954 C-55.59083859 57.29024768 -55.59626777 54.84907906 -55.60888672 52.40795898 C-55.62503332 48.67980775 -55.608951 44.95272852 -55.58984375 41.22460938 C-55.59182501 38.84114346 -55.59566625 36.4576782 -55.6015625 34.07421875 C-55.59548981 32.96680832 -55.58941711 31.85939789 -55.5831604 30.71842957 C-55.63768869 24.71082301 -56.04438298 20.28033563 -59 15 C-60.9004467 13.15684329 -60.9004467 13.15684329 -63 12 C-63.99 11.34 -64.98 10.68 -66 10 C-62.06675061 8.15744484 -58.12773978 6.32755281 -54.1875 4.5 C-53.06794922 3.97535156 -51.94839844 3.45070312 -50.79492188 2.91015625 C-49.72177734 2.41386719 -48.64863281 1.91757813 -47.54296875 1.40625 C-46.55321045 0.94541016 -45.56345215 0.48457031 -44.54370117 0.00976562 C-42 -1 -42 -1 -39 -1 C-38.67 5.6 -38.34 12.2 -38 19 C-37.030625 17.68 -36.06125 16.36 -35.0625 15 C-26.02300828 3.45054881 -15.03644525 -6.0145781 0 0 Z " fill="#EB7B62" transform="translate(852,183)"/>
<path d="M0 0 C0.66 0 1.32 0 2 0 C2.23501724 0.59087402 2.47003448 1.18174805 2.71217346 1.79052734 C5.19165069 8.02278847 7.67497821 14.25350585 10.16040039 20.48339844 C11.08355978 22.79877157 12.00578482 25.11451748 12.92700195 27.43066406 C19.71369575 44.55857926 19.71369575 44.55857926 27.04237366 61.45898438 C29 65.80145001 29 65.80145001 29 68 C10.85 68 -7.3 68 -26 68 C-25.16842988 63.84214941 -24.14686454 60.54917289 -22.59155273 56.64916992 C-22.34756744 56.03396484 -22.10358215 55.41875977 -21.85220337 54.78491211 C-21.05002334 52.76513712 -20.24185853 50.74781557 -19.43359375 48.73046875 C-18.8741453 47.32528721 -18.31507373 45.91995558 -17.75636292 44.51448059 C-16.28876204 40.82557038 -14.81606469 37.1387158 -13.34228516 33.45227051 C-11.83772801 29.68620889 -10.33801572 25.91821931 -8.83789062 22.15039062 C-5.89665677 14.76503502 -2.95003428 7.38184471 0 0 Z " fill="#FEFCFB" transform="translate(566,130)"/>
<path d="M0 0 C0.00364563 0.99256805 0.00729126 1.98513611 0.01104736 3.00778198 C0.04810073 12.39376021 0.10598575 21.77941349 0.18390274 31.16514397 C0.22329454 35.98966645 0.25552356 40.81400868 0.27099609 45.63867188 C0.28621753 50.30084874 0.32075969 54.96252977 0.36830902 59.62448502 C0.38306646 61.39688922 0.39103776 63.16936424 0.39188385 64.94182968 C0.40371757 77.30943672 0.99726811 85.99658514 9 96 C-2.22 96 -13.44 96 -25 96 C-23.35 93.69 -21.7 91.38 -20 89 C-16.70402391 81.08965737 -16.83085888 72.87234795 -16.796875 64.44140625 C-16.79117493 63.33828598 -16.78547485 62.23516571 -16.77960205 61.09861755 C-16.77018618 58.77303009 -16.7636317 56.44742949 -16.75976562 54.12182617 C-16.75004177 50.57772516 -16.71897787 47.03420001 -16.6875 43.49023438 C-16.68097072 41.22396175 -16.67571995 38.95768501 -16.671875 36.69140625 C-16.6595282 35.63909317 -16.6471814 34.58678009 -16.63446045 33.50257874 C-16.65314597 27.28967368 -17.32822059 22.63911324 -20 17 C-21.88077873 15.08743288 -21.88077873 15.08743288 -24 14 C-24.99 13.34 -25.98 12.68 -27 12 C-23.31662664 10.28860255 -19.63212155 8.57966923 -15.9465332 6.87304688 C-14.69198476 6.29169852 -13.43775187 5.7096687 -12.18383789 5.12695312 C-10.38510216 4.29119128 -8.58514772 3.4580539 -6.78515625 2.625 C-5.70113525 2.12226563 -4.61711426 1.61953125 -3.50024414 1.1015625 C-1 0 -1 0 0 0 Z " fill="#EB7B61" transform="translate(1055,181)"/>
<path d="M0 0 C0.5937742 19.35264055 0.5937742 19.35264055 -4.75 27.75 C-10.81679168 33.81679168 -15.52902661 34.4515822 -23.9140625 34.53125 C-27.65563449 33.88713128 -29.29242342 32.61207123 -32 30 C-35.25201621 25.17804492 -35.88728787 20.65892486 -35 15 C-33.23967041 10.17328984 -30.31837141 6.74805453 -26 4 C-17.4332952 0.0447719 -9.31649121 -0.13567706 0 0 Z " fill="#FEFBFB" transform="translate(1141,234)"/>
<path d="M0 0 C3.82566663 3.67732445 6.62206896 7.24413793 9 12 C9 15.3 9 18.6 9 22 C-6.18 22 -21.36 22 -37 22 C-35 13 -35 13 -34 11 C-33.01 11 -32.02 11 -31 11 C-31.33 10.01 -31.66 9.02 -32 8 C-29.05380651 3.12659723 -24.65247705 -0.90348469 -19.15234375 -2.5546875 C-12.42117442 -3.94734322 -5.94261308 -3.58799281 0 0 Z " fill="#FEFDFD" transform="translate(921,193)"/>
<path d="M0 0 C3.74624361 1.66499716 5.81723041 3.5638193 8 7 C8.80407057 11.0605564 8.93064111 15.22072831 6.98046875 18.94921875 C4.85618473 21.59976044 3.23500981 22.9216634 0 24 C-6.83159214 24.67195988 -6.83159214 24.67195988 -9.8203125 22.953125 C-12.77422174 20.5272092 -14.78889815 18.67675182 -15.2734375 14.828125 C-15.58137554 7.01123631 -15.58137554 7.01123631 -12.625 3.4375 C-8.60137237 -0.29872566 -5.36361177 -0.57761973 0 0 Z " fill="#EC7C62" transform="translate(1050,126)"/>
<path d="M0 0 C2.125 0.375 2.125 0.375 4 1 C4.625 3.375 4.625 3.375 5 6 C4.34 6.66 3.68 7.32 3 8 C0.875 7.625 0.875 7.625 -1 7 C-1.625 4.625 -1.625 4.625 -2 2 C-1.34 1.34 -0.68 0.68 0 0 Z " fill="#F2E7E2" transform="translate(1045,134)"/>
</svg>
