<?xml version="1.0" encoding="UTF-8"?>
<svg version="1.1" xmlns="http://www.w3.org/2000/svg" width="1002" height="840">
<path d="M0 0 C330.66 0 661.32 0 1002 0 C1002 277.2 1002 554.4 1002 840 C671.34 840 340.68 840 0 840 C0 562.8 0 285.6 0 0 Z " fill="#FEFEFE" transform="translate(0,0)"/>
<path d="M0 0 C0.66 0 1.32 0 2 0 C3.47401428 1.49278259 3.47401428 1.49278259 5.17602539 3.54272461 C8.67624791 7.65654951 12.35947948 11.5048408 16.18359375 15.31640625 C16.84279312 15.97656235 17.50199249 16.63671844 18.1811676 17.31687927 C19.56396835 18.70035506 20.94801076 20.08259083 22.33325195 21.46362305 C24.43230343 23.55731669 26.5259594 25.65629874 28.61914062 27.75585938 C29.97363786 29.10969571 31.32844531 30.46322175 32.68359375 31.81640625 C33.29843124 32.43326797 33.91326874 33.0501297 34.54673767 33.6856842 C38.31697711 37.43603161 42.20581525 40.99553547 46.23866272 44.46228027 C48.59664761 46.52089785 50.80444259 48.70763701 53 50.9375 C53.763125 51.70964844 54.52625 52.48179687 55.3125 53.27734375 C55.869375 53.84582031 56.42625 54.41429687 57 55 C60.55480003 53.49158187 62.79559622 51.42366339 65.484375 48.67578125 C66.76441406 47.37930664 66.76441406 47.37930664 68.0703125 46.05664062 C68.95460938 45.15107422 69.83890625 44.24550781 70.75 43.3125 C80.60149216 33.26368567 80.60149216 33.26368567 84.828125 29.6640625 C90.88140035 24.48241602 96.39086471 18.7139473 102 13.0625 C103.16773374 11.88973991 104.33570074 10.71721202 105.50390625 9.54492188 C108.33863234 6.69928311 111.17018824 3.85052547 114 1 C118.18167326 2.63256246 120.94467643 5.7086575 124.015625 8.85546875 C124.59028503 9.43533035 125.16494507 10.01519196 125.75701904 10.61262512 C127.59284019 12.4662186 129.42185415 14.3263386 131.25 16.1875 C133.64761852 18.62189181 136.04842111 21.05307545 138.453125 23.48046875 C139.03320312 24.06609085 139.61328125 24.65171295 140.2109375 25.25508118 C143.71862931 28.77496297 147.31416157 32.11759539 151.10449219 35.33374023 C155.08971694 38.8369807 158.76949777 42.66750549 162.5 46.4375 C163.32242188 47.26443359 164.14484375 48.09136719 164.9921875 48.94335938 C166.99712113 50.95994959 168.99966253 52.97885236 171 55 C175.08663421 53.3837447 177.78950866 50.44804688 180.796875 47.36328125 C181.34933899 46.80561569 181.90180298 46.24795013 182.4710083 45.67338562 C184.23550514 43.89112195 185.99318795 42.10233665 187.75 40.3125 C190.0538559 37.9718464 192.36090704 35.63441348 194.671875 33.30078125 C195.23080444 32.73630783 195.78973389 32.17183441 196.36560059 31.59025574 C199.80541534 28.13805719 203.34065361 24.87147592 207.05566406 21.71508789 C211.22845384 18.03429329 215.08677767 14.01479444 219 10.0625 C219.87011719 9.18787109 220.74023438 8.31324219 221.63671875 7.41210938 C223.76013549 5.27702551 225.88116378 3.13962795 228 1 C231.26233121 2.42882214 233.40993909 4.17053252 235.90722656 6.69604492 C236.66191223 7.45410934 237.4165979 8.21217377 238.19415283 8.99320984 C239.00148865 9.81400528 239.80882446 10.63480072 240.640625 11.48046875 C241.48163757 12.32668289 242.32265015 13.17289703 243.18914795 14.04475403 C245.88088337 16.75430529 248.56586526 19.47042077 251.25 22.1875 C253.92066362 24.88589762 256.59280522 27.58278724 259.26800537 30.27668762 C260.93152597 31.95233414 262.5923676 33.63064603 264.25006104 35.3120575 C268.41221073 39.50963381 272.65741699 43.5137515 277.13909912 47.36741638 C280.04017974 49.91255823 282.75416939 52.6299489 285.46875 55.37109375 C286.03452759 55.93828629 286.60030518 56.50547882 287.18322754 57.08985901 C288.95788577 58.87003423 290.72900099 60.65368519 292.5 62.4375 C293.71591114 63.6584369 294.93205516 64.87914192 296.1484375 66.09960938 C299.10164966 69.06374013 302.05169398 72.03098958 305 75 C301.07711742 79.70341126 296.98981304 84.14273951 292.625 88.4375 C292.07972656 88.97826172 291.53445313 89.51902344 290.97265625 90.07617188 C289.65076536 91.38646723 288.32572382 92.69358284 287 94 C280.38927013 88.5664118 274.40785804 82.53553957 268.37890625 76.4765625 C267.26811831 75.36390615 266.1571069 74.25147284 265.04588318 73.13925171 C262.14211066 70.2316873 259.24135564 67.32113095 256.34124756 64.40991211 C253.37321737 61.43159571 250.40230338 58.45615894 247.43164062 55.48046875 C241.61828917 49.65643877 235.80812666 43.8292405 230 38 C226.97125541 39.35631828 224.8748059 40.87646766 222.53588867 43.22119141 C221.54917427 44.20329086 221.54917427 44.20329086 220.54252625 45.20523071 C219.49087029 46.26766495 219.49087029 46.26766495 218.41796875 47.3515625 C217.68556473 48.08442474 216.95316071 48.81728699 216.19856262 49.57235718 C214.64880153 51.12513829 213.10147055 52.68034803 211.55639648 54.23779297 C209.21187332 56.60043828 206.85958252 58.95511735 204.50585938 61.30859375 C202.99692583 62.82244833 201.48844785 64.33675717 199.98046875 65.8515625 C198.93792183 66.89577866 198.93792183 66.89577866 197.87431335 67.96109009 C193.95317658 71.91971756 190.19928377 75.97219024 186.5737915 80.2038269 C184.03509918 83.10124428 181.30755429 85.79972075 178.5625 88.5 C178.02173828 89.03625 177.48097656 89.5725 176.92382812 90.125 C175.61823383 91.41904036 174.30947004 92.70988174 173 94 C169.87675456 92.61370756 167.75809293 91.00488429 165.35546875 88.5859375 C164.67806641 87.90660156 164.00066406 87.22726562 163.30273438 86.52734375 C162.60470703 85.81707031 161.90667969 85.10679687 161.1875 84.375 C160.15786133 83.34439453 160.15786133 83.34439453 159.10742188 82.29296875 C155.85675974 79.01462832 152.71898378 75.68912389 149.70019531 72.19580078 C146.20622007 68.18334819 142.53055816 64.40146686 138.75390625 60.65625 C138.09792953 60.00168823 137.44195282 59.34712646 136.76609802 58.67272949 C134.70059855 56.61276177 132.63162405 54.55632634 130.5625 52.5 C129.14885566 51.0913795 127.73544214 49.68252733 126.32226562 48.2734375 C122.88416851 44.84627867 119.44295344 41.42227981 116 38 C112.97125541 39.35631828 110.8748059 40.87646766 108.53588867 43.22119141 C107.87807907 43.87592438 107.22026947 44.53065735 106.54252625 45.20523071 C105.84142227 45.9135202 105.1403183 46.62180969 104.41796875 47.3515625 C103.68556473 48.08442474 102.95316071 48.81728699 102.19856262 49.57235718 C100.64880153 51.12513829 99.10147055 52.68034803 97.55639648 54.23779297 C95.21187332 56.60043828 92.85958252 58.95511735 90.50585938 61.30859375 C88.99692583 62.82244833 87.48844785 64.33675717 85.98046875 65.8515625 C84.93792183 66.89577866 84.93792183 66.89577866 83.87431335 67.96109009 C79.95317658 71.91971756 76.19928377 75.97219024 72.5737915 80.2038269 C70.03509918 83.10124428 67.30755429 85.79972075 64.5625 88.5 C64.02173828 89.03625 63.48097656 89.5725 62.92382812 90.125 C61.61823383 91.41904036 60.30947004 92.70988174 59 94 C55.87675456 92.61370756 53.75809293 91.00488429 51.35546875 88.5859375 C50.67806641 87.90660156 50.00066406 87.22726562 49.30273438 86.52734375 C48.60470703 85.81707031 47.90667969 85.10679687 47.1875 84.375 C46.50107422 83.68792969 45.81464844 83.00085938 45.10742188 82.29296875 C41.85675974 79.01462832 38.71898378 75.68912389 35.70019531 72.19580078 C32.20622007 68.18334819 28.53055816 64.40146686 24.75390625 60.65625 C24.09792953 60.00168823 23.44195282 59.34712646 22.76609802 58.67272949 C20.70059855 56.61276177 18.63162405 54.55632634 16.5625 52.5 C15.14885566 51.0913795 13.73544214 49.68252733 12.32226562 48.2734375 C8.88416851 44.84627867 5.44295344 41.42227981 2 38 C-1.89395116 39.58399589 -4.51152235 42.24196943 -7.41113281 45.18408203 C-8.20204819 45.97455933 -8.20204819 45.97455933 -9.00894165 46.78100586 C-10.74512072 48.51857476 -12.474114 50.26311314 -14.203125 52.0078125 C-15.40766437 53.21608322 -16.61264697 54.42391222 -17.8180542 55.63131714 C-20.98548106 58.80637077 -24.14685513 61.98738522 -27.30700684 65.16967773 C-30.53437089 68.41752076 -33.76742228 71.65969133 -37 74.90234375 C-43.33891303 81.26268982 -49.67144624 87.62934753 -56 94 C-63.42597701 87.70406819 -63.42597701 87.70406819 -66.30859375 84.7890625 C-66.82744141 84.26699219 -67.34628906 83.74492187 -67.88085938 83.20703125 C-68.39455078 82.68496094 -68.90824219 82.16289062 -69.4375 81.625 C-70.24864258 80.80708984 -70.24864258 80.80708984 -71.07617188 79.97265625 C-72.38646723 78.65076536 -73.69358284 77.32572382 -75 76 C-70.3872608 70.46581101 -65.48223681 65.33610746 -60.3828125 60.25 C-59.56682587 59.43305664 -58.75083923 58.61611328 -57.91012573 57.77441406 C-56.1918007 56.05541164 -54.47222464 54.33765893 -52.75146484 52.62109375 C-50.13655299 50.01152936 -47.52700999 47.39668234 -44.91796875 44.78125 C-43.23990378 43.10384603 -41.56152854 41.42675239 -39.8828125 39.75 C-39.1117215 38.97688477 -38.34063049 38.20376953 -37.5461731 37.40722656 C-33.42694071 33.30552139 -29.21822881 29.38304747 -24.81512451 25.58828735 C-22.25176833 23.34527527 -19.85184536 20.98154504 -17.44140625 18.57421875 C-16.96678452 18.10055374 -16.49216278 17.62688873 -16.00315857 17.13887024 C-15.01821364 16.15459654 -14.03449266 15.16909653 -13.05200195 14.18237305 C-11.54427904 12.66921334 -10.03118241 11.16157115 -8.51757812 9.65429688 C-7.55436608 8.69042526 -6.5914636 7.72624416 -5.62890625 6.76171875 C-4.76338135 5.89506592 -3.89785645 5.02841309 -3.00610352 4.13549805 C-0.9632226 2.16515239 -0.9632226 2.16515239 0 0 Z " fill="#EB7A61" transform="translate(375,207)"/>
<path d="M0 0 C3.85308766 1.57523746 6.44743914 4.17747444 9.31933594 7.09228516 C9.83685928 7.60951645 10.35438263 8.12674774 10.8875885 8.65965271 C12.59130289 10.36475671 14.28782978 12.07682768 15.984375 13.7890625 C17.16649407 14.974913 18.34905645 16.16032174 19.53204346 17.3453064 C22.64028728 20.46117638 25.74247737 23.58300634 28.84344482 26.70611572 C32.01048502 29.89363619 35.18321387 33.0754832 38.35546875 36.2578125 C44.57589403 42.49966976 50.78993537 48.74783485 57 55 C60.85308766 53.42476254 63.44743914 50.82252556 66.31933594 47.90771484 C67.09562096 47.1318679 67.09562096 47.1318679 67.8875885 46.34034729 C69.59130289 44.63524329 71.28782978 42.92317232 72.984375 41.2109375 C74.16649407 40.025087 75.34905645 38.83967826 76.53204346 37.6546936 C79.64028728 34.53882362 82.74247737 31.41699366 85.84344482 28.29388428 C89.01048502 25.10636381 92.18321387 21.9245168 95.35546875 18.7421875 C101.57589403 12.50033024 107.78993537 6.25216515 114 0 C117.85308766 1.57523746 120.44743914 4.17747444 123.31933594 7.09228516 C123.83685928 7.60951645 124.35438263 8.12674774 124.8875885 8.65965271 C126.59130289 10.36475671 128.28782978 12.07682768 129.984375 13.7890625 C131.16649407 14.974913 132.34905645 16.16032174 133.53204346 17.3453064 C136.64028728 20.46117638 139.74247737 23.58300634 142.84344482 26.70611572 C146.01048502 29.89363619 149.18321387 33.0754832 152.35546875 36.2578125 C158.57589403 42.49966976 164.78993537 48.74783485 171 55 C174.85308766 53.42476254 177.44743914 50.82252556 180.31933594 47.90771484 C181.09562096 47.1318679 181.09562096 47.1318679 181.8875885 46.34034729 C183.59130289 44.63524329 185.28782978 42.92317232 186.984375 41.2109375 C188.16649407 40.025087 189.34905645 38.83967826 190.53204346 37.6546936 C193.64028728 34.53882362 196.74247737 31.41699366 199.84344482 28.29388428 C203.01048502 25.10636381 206.18321387 21.9245168 209.35546875 18.7421875 C215.57589403 12.50033024 221.78993537 6.25216515 228 0 C230.90297734 1.31365937 232.96908109 2.72072123 235.2144165 4.97390747 C235.82573425 5.58247589 236.437052 6.19104431 237.06689453 6.8180542 C238.05520264 7.81714813 238.05520264 7.81714813 239.06347656 8.83642578 C239.76631775 9.53897491 240.46915894 10.24152405 241.19329834 10.96536255 C243.51384625 13.28730311 245.8272308 15.61624628 248.140625 17.9453125 C249.74872947 19.55714732 251.35727625 21.16854097 252.96624756 22.7795105 C257.19897265 27.01987029 261.42565715 31.26620206 265.65112305 35.51379395 C269.96431271 39.84744543 274.28317249 44.17543788 278.6015625 48.50390625 C287.07327591 56.99706673 295.53862033 65.49654528 304 74 C302.51136264 77.11966041 300.99711308 79.24012613 298.5234375 81.671875 C297.853125 82.33574219 297.1828125 82.99960938 296.4921875 83.68359375 C295.44417969 84.70646484 295.44417969 84.70646484 294.375 85.75 C293.31539062 86.79607422 293.31539062 86.79607422 292.234375 87.86328125 C290.49400848 89.5801293 288.74829728 91.29123998 287 93 C280.9946169 88.06702559 275.52978903 82.6483271 270.06122398 77.13638878 C268.42009278 75.48236395 266.77574376 73.83159769 265.13056946 72.18159485 C261.64670798 68.68638301 258.16682971 65.18722226 254.6875 61.6875 C250.63624706 57.61263269 246.58337077 53.53940727 242.52628517 49.47034645 C240.90558008 47.84315556 239.28791097 46.21298694 237.67033386 44.58268738 C236.68230659 43.5910297 235.69413985 42.59951096 234.70581055 41.6081543 C233.84312057 40.74022751 232.9804306 39.87230072 232.09159851 38.97807312 C230.15837902 36.95850154 230.15837902 36.95850154 228 36 C227.73741898 36.5878981 227.47483795 37.1757962 227.20429993 37.7815094 C225.93945201 40.11153794 224.60842984 41.63288513 222.73120117 43.49584961 C222.06678513 44.16011459 221.40236908 44.82437958 220.71781921 45.5087738 C219.64126823 46.56984093 219.64126823 46.56984093 218.54296875 47.65234375 C217.80299149 48.38949112 217.06301422 49.12663849 216.3006134 49.88612366 C213.93423199 52.24132151 211.56100478 54.58948317 209.1875 56.9375 C207.60045245 58.51451216 206.01385864 60.0919811 204.42773438 61.66992188 C201.50695693 64.57437923 198.58359519 67.47617867 195.65698242 70.37475586 C192.76299188 73.24157646 189.87760969 76.116722 187 79 C182.33333333 83.66666667 177.66666667 88.33333333 173 93 C169.97503419 91.64937713 167.9194306 90.14970763 165.6171875 87.77734375 C165.00746094 87.15666016 164.39773438 86.53597656 163.76953125 85.89648438 C163.14433594 85.25001953 162.51914062 84.60355469 161.875 83.9375 C160.62463926 82.6527607 159.37213484 81.37010319 158.1171875 80.08984375 C157.29130127 79.23700806 157.29130127 79.23700806 156.44873047 78.36694336 C155.02585988 76.89270095 155.02585988 76.89270095 153 76 C152.62174072 75.31711914 152.24348145 74.63423828 151.85375977 73.93066406 C149.22196913 69.7699878 145.82745993 66.56227922 142.33984375 63.109375 C141.59416641 62.36415588 140.84848907 61.61893677 140.08021545 60.85113525 C138.508237 59.28217032 136.93383637 57.71562893 135.35717773 56.15136719 C132.93739148 53.7498923 130.52575781 51.34045643 128.11523438 48.9296875 C126.58640963 47.40577621 125.05712847 45.88232262 123.52734375 44.359375 C122.80336899 43.63651306 122.07939423 42.91365112 121.33348083 42.16888428 C120.66260941 41.5043927 119.99173798 40.83990112 119.30053711 40.15527344 C118.7100206 39.56856873 118.11950409 38.98186401 117.51109314 38.37738037 C116.02937074 36.90134364 116.02937074 36.90134364 114 36 C113.73741898 36.5878981 113.47483795 37.1757962 113.20429993 37.7815094 C111.93945201 40.11153794 110.60842984 41.63288513 108.73120117 43.49584961 C108.06678513 44.16011459 107.40236908 44.82437958 106.71781921 45.5087738 C105.64126823 46.56984093 105.64126823 46.56984093 104.54296875 47.65234375 C103.43300285 48.7580648 103.43300285 48.7580648 102.3006134 49.88612366 C99.93423199 52.24132151 97.56100478 54.58948317 95.1875 56.9375 C93.60045245 58.51451216 92.01385864 60.0919811 90.42773438 61.66992188 C87.50695693 64.57437923 84.58359519 67.47617867 81.65698242 70.37475586 C78.76299188 73.24157646 75.87760969 76.116722 73 79 C68.33333333 83.66666667 63.66666667 88.33333333 59 93 C55.97503419 91.64937713 53.9194306 90.14970763 51.6171875 87.77734375 C50.70259766 86.84631836 50.70259766 86.84631836 49.76953125 85.89648438 C49.14433594 85.25001953 48.51914062 84.60355469 47.875 83.9375 C46.62463926 82.6527607 45.37213484 81.37010319 44.1171875 80.08984375 C43.56659668 79.52128662 43.01600586 78.95272949 42.44873047 78.36694336 C41.02585988 76.89270095 41.02585988 76.89270095 39 76 C38.62174072 75.31711914 38.24348145 74.63423828 37.85375977 73.93066406 C35.22196913 69.7699878 31.82745993 66.56227922 28.33984375 63.109375 C27.59416641 62.36415588 26.84848907 61.61893677 26.08021545 60.85113525 C24.508237 59.28217032 22.93383637 57.71562893 21.35717773 56.15136719 C18.93739148 53.7498923 16.52575781 51.34045643 14.11523438 48.9296875 C12.58640963 47.40577621 11.05712847 45.88232262 9.52734375 44.359375 C8.80336899 43.63651306 8.07939423 42.91365112 7.33348083 42.16888428 C6.66260941 41.5043927 5.99173798 40.83990112 5.30053711 40.15527344 C4.7100206 39.56856873 4.11950409 38.98186401 3.51109314 38.37738037 C2.02937074 36.90134364 2.02937074 36.90134364 0 36 C-0.33837891 36.83337891 -0.33837891 36.83337891 -0.68359375 37.68359375 C-2.38539419 40.67815653 -4.57347758 42.68808006 -7.0625 45.0625 C-10.82954005 48.5170026 -10.82954005 48.5170026 -13 53 C-13.68288086 53.39960938 -14.36576172 53.79921875 -15.06933594 54.2109375 C-19.26093991 56.76975739 -22.44011162 60.15494275 -25.890625 63.625 C-26.63584412 64.36830566 -27.38106323 65.11161133 -28.14886475 65.87744141 C-29.71791401 67.44513297 -31.28445358 69.01533991 -32.84863281 70.58789062 C-35.24843959 72.99843261 -37.65875882 75.39809126 -40.0703125 77.796875 C-41.59439196 79.32227553 -43.11785118 80.84829607 -44.640625 82.375 C-45.36348694 83.09381348 -46.08634888 83.81262695 -46.83111572 84.55322266 C-47.4956073 85.22401855 -48.16009888 85.89481445 -48.84472656 86.5859375 C-49.43143127 87.1742334 -50.01813599 87.7625293 -50.62261963 88.36865234 C-52.2274836 90.06512143 -52.2274836 90.06512143 -53 93 C-57.1724031 92.48993402 -59.08024151 91.40495389 -61.98828125 88.40234375 C-62.69404297 87.68369141 -63.39980469 86.96503906 -64.12695312 86.22460938 C-64.84818359 85.46986328 -65.56941406 84.71511719 -66.3125 83.9375 C-67.05306641 83.17888672 -67.79363281 82.42027344 -68.55664062 81.63867188 C-70.38043834 79.76780841 -72.19424304 77.88825508 -74 76 C-72.55126254 72.63990304 -70.73076768 70.5406503 -68.0859375 68.03125 C-67.32539063 67.29519531 -66.56484375 66.55914062 -65.78125 65.80078125 C-64.17299738 64.26302023 -62.56098989 62.72917692 -60.9453125 61.19921875 C-60.18734375 60.46316406 -59.429375 59.72710937 -58.6484375 58.96875 C-57.94895996 58.30294922 -57.24948242 57.63714844 -56.52880859 56.95117188 C-54.58882691 54.88836153 -54.58882691 54.88836153 -55 51 C-54.28137283 50.93200699 -53.56274567 50.86401398 -52.82234192 50.79396057 C-49.12792396 49.75467395 -47.53708732 48.01847554 -44.8425293 45.29663086 C-44.35412064 44.8088063 -43.86571198 44.32098175 -43.36250305 43.81837463 C-41.75673961 42.20983311 -40.16559548 40.58760922 -38.57421875 38.96484375 C-37.46122835 37.84439 -36.34734924 36.7248184 -35.23262024 35.60609436 C-32.30566831 32.66389364 -29.39092889 29.70987839 -26.47857666 26.75323486 C-23.50277083 23.73646036 -20.51556335 20.73102301 -17.52929688 17.72460938 C-11.67498347 11.82743837 -5.83352403 5.91773645 0 0 Z " fill="#EB7A60" transform="translate(375,107)"/>
<path d="M0 0 C3.78946188 1.76552862 6.4103012 4.13978156 9.31933594 7.09228516 C9.83685928 7.60951645 10.35438263 8.12674774 10.8875885 8.65965271 C12.59130289 10.36475671 14.28782978 12.07682768 15.984375 13.7890625 C17.16649407 14.974913 18.34905645 16.16032174 19.53204346 17.3453064 C22.64028728 20.46117638 25.74247737 23.58300634 28.84344482 26.70611572 C32.01048502 29.89363619 35.18321387 33.0754832 38.35546875 36.2578125 C44.57589403 42.49966976 50.78993537 48.74783485 57 55 C60.85308766 53.42476254 63.44743914 50.82252556 66.31933594 47.90771484 C67.09562096 47.1318679 67.09562096 47.1318679 67.8875885 46.34034729 C69.59130289 44.63524329 71.28782978 42.92317232 72.984375 41.2109375 C74.16649407 40.025087 75.34905645 38.83967826 76.53204346 37.6546936 C79.64028728 34.53882362 82.74247737 31.41699366 85.84344482 28.29388428 C89.01048502 25.10636381 92.18321387 21.9245168 95.35546875 18.7421875 C101.57589403 12.50033024 107.78993537 6.25216515 114 0 C117.85308766 1.57523746 120.44743914 4.17747444 123.31933594 7.09228516 C123.83685928 7.60951645 124.35438263 8.12674774 124.8875885 8.65965271 C126.59130289 10.36475671 128.28782978 12.07682768 129.984375 13.7890625 C131.16649407 14.974913 132.34905645 16.16032174 133.53204346 17.3453064 C136.64028728 20.46117638 139.74247737 23.58300634 142.84344482 26.70611572 C146.01048502 29.89363619 149.18321387 33.0754832 152.35546875 36.2578125 C158.57589403 42.49966976 164.78993537 48.74783485 171 55 C174.85308766 53.42476254 177.44743914 50.82252556 180.31933594 47.90771484 C181.09562096 47.1318679 181.09562096 47.1318679 181.8875885 46.34034729 C183.59130289 44.63524329 185.28782978 42.92317232 186.984375 41.2109375 C188.16649407 40.025087 189.34905645 38.83967826 190.53204346 37.6546936 C193.64028728 34.53882362 196.74247737 31.41699366 199.84344482 28.29388428 C203.01048502 25.10636381 206.18321387 21.9245168 209.35546875 18.7421875 C215.57589403 12.50033024 221.78993537 6.25216515 228 0 C230.90297734 1.31365937 232.96908109 2.72072123 235.2144165 4.97390747 C235.82573425 5.58247589 236.437052 6.19104431 237.06689453 6.8180542 C238.05520264 7.81714813 238.05520264 7.81714813 239.06347656 8.83642578 C239.76631775 9.53897491 240.46915894 10.24152405 241.19329834 10.96536255 C243.51384625 13.28730311 245.8272308 15.61624628 248.140625 17.9453125 C249.74872947 19.55714732 251.35727625 21.16854097 252.96624756 22.7795105 C257.19897265 27.01987029 261.42565715 31.26620206 265.65112305 35.51379395 C269.96431271 39.84744543 274.28317249 44.17543788 278.6015625 48.50390625 C287.07327591 56.99706673 295.53862033 65.49654528 304 74 C302.51136264 77.11966041 300.99711308 79.24012613 298.5234375 81.671875 C297.853125 82.33574219 297.1828125 82.99960937 296.4921875 83.68359375 C295.44417969 84.70646484 295.44417969 84.70646484 294.375 85.75 C293.31539062 86.79607422 293.31539062 86.79607422 292.234375 87.86328125 C290.49400848 89.5801293 288.74829728 91.29123998 287 93 C280.9946169 88.06702559 275.52978903 82.6483271 270.06122398 77.13638878 C268.42009278 75.48236395 266.77574376 73.83159769 265.13056946 72.18159485 C261.64670798 68.68638301 258.16682971 65.18722226 254.6875 61.6875 C250.63624706 57.61263269 246.58337077 53.53940727 242.52628517 49.47034645 C240.90558008 47.84315556 239.28791097 46.21298694 237.67033386 44.58268738 C236.68230659 43.5910297 235.69413985 42.59951096 234.70581055 41.6081543 C233.84312057 40.74022751 232.9804306 39.87230072 232.09159851 38.97807312 C230.15837902 36.95850154 230.15837902 36.95850154 228 36 C227.73741898 36.5878981 227.47483795 37.1757962 227.20429993 37.7815094 C225.93945201 40.11153794 224.60842984 41.63288513 222.73120117 43.49584961 C222.06678513 44.16011459 221.40236908 44.82437958 220.71781921 45.5087738 C219.64126823 46.56984093 219.64126823 46.56984093 218.54296875 47.65234375 C217.80299149 48.38949112 217.06301422 49.12663849 216.3006134 49.88612366 C213.93423199 52.24132151 211.56100478 54.58948317 209.1875 56.9375 C207.60045245 58.51451216 206.01385864 60.0919811 204.42773438 61.66992188 C201.50695693 64.57437923 198.58359519 67.47617867 195.65698242 70.37475586 C192.76299188 73.24157646 189.87760969 76.116722 187 79 C182.33333333 83.66666667 177.66666667 88.33333333 173 93 C169.97503419 91.64937713 167.9194306 90.14970763 165.6171875 87.77734375 C165.00746094 87.15666016 164.39773438 86.53597656 163.76953125 85.89648438 C163.14433594 85.25001953 162.51914062 84.60355469 161.875 83.9375 C160.62463926 82.6527607 159.37213484 81.37010319 158.1171875 80.08984375 C157.29130127 79.23700806 157.29130127 79.23700806 156.44873047 78.36694336 C155.02585988 76.89270095 155.02585988 76.89270095 153 76 C152.62174072 75.31711914 152.24348145 74.63423828 151.85375977 73.93066406 C149.22196913 69.7699878 145.82745993 66.56227922 142.33984375 63.109375 C141.59416641 62.36415588 140.84848907 61.61893677 140.08021545 60.85113525 C138.508237 59.28217032 136.93383637 57.71562893 135.35717773 56.15136719 C132.93739148 53.7498923 130.52575781 51.34045643 128.11523438 48.9296875 C126.58640963 47.40577621 125.05712847 45.88232262 123.52734375 44.359375 C122.80336899 43.63651306 122.07939423 42.91365112 121.33348083 42.16888428 C120.66260941 41.5043927 119.99173798 40.83990112 119.30053711 40.15527344 C118.7100206 39.56856873 118.11950409 38.98186401 117.51109314 38.37738037 C116.02937074 36.90134364 116.02937074 36.90134364 114 36 C113.73741898 36.5878981 113.47483795 37.1757962 113.20429993 37.7815094 C111.93945201 40.11153794 110.60842984 41.63288513 108.73120117 43.49584961 C108.06678513 44.16011459 107.40236908 44.82437958 106.71781921 45.5087738 C105.64126823 46.56984093 105.64126823 46.56984093 104.54296875 47.65234375 C103.43300285 48.7580648 103.43300285 48.7580648 102.3006134 49.88612366 C99.93423199 52.24132151 97.56100478 54.58948317 95.1875 56.9375 C93.60045245 58.51451216 92.01385864 60.0919811 90.42773438 61.66992188 C87.50695693 64.57437923 84.58359519 67.47617867 81.65698242 70.37475586 C78.76299188 73.24157646 75.87760969 76.116722 73 79 C68.33333333 83.66666667 63.66666667 88.33333333 59 93 C55.97503419 91.64937713 53.9194306 90.14970763 51.6171875 87.77734375 C50.70259766 86.84631836 50.70259766 86.84631836 49.76953125 85.89648438 C49.14433594 85.25001953 48.51914062 84.60355469 47.875 83.9375 C46.62463926 82.6527607 45.37213484 81.37010319 44.1171875 80.08984375 C43.56659668 79.52128662 43.01600586 78.95272949 42.44873047 78.36694336 C41.02585988 76.89270095 41.02585988 76.89270095 39 76 C38.62174072 75.31711914 38.24348145 74.63423828 37.85375977 73.93066406 C35.22196913 69.7699878 31.82745993 66.56227922 28.33984375 63.109375 C27.59416641 62.36415588 26.84848907 61.61893677 26.08021545 60.85113525 C24.508237 59.28217032 22.93383637 57.71562893 21.35717773 56.15136719 C18.93739148 53.7498923 16.52575781 51.34045643 14.11523438 48.9296875 C12.58640963 47.40577621 11.05712847 45.88232262 9.52734375 44.359375 C8.80336899 43.63651306 8.07939423 42.91365112 7.33348083 42.16888428 C6.66260941 41.5043927 5.99173798 40.83990112 5.30053711 40.15527344 C4.7100206 39.56856873 4.11950409 38.98186401 3.51109314 38.37738037 C2.02937074 36.90134364 2.02937074 36.90134364 0 36 C-0.34611328 36.83724609 -0.34611328 36.83724609 -0.69921875 37.69140625 C-2.34533509 40.61289201 -4.41073132 42.60054666 -6.8125 44.9375 C-7.66457031 45.77152344 -8.51664062 46.60554688 -9.39453125 47.46484375 C-10.25433594 48.30144531 -11.11414063 49.13804687 -12 50 C-13.15970437 51.15852247 -14.31920548 52.31724942 -15.47746277 53.47721863 C-17.23712419 55.23716221 -19.00071017 56.99312224 -20.76464844 58.7487793 C-24.60410147 62.57045554 -28.44051766 66.39516484 -32.27587891 70.22094727 C-33.93157044 71.87157402 -35.58815311 73.52130737 -37.24560547 75.17016602 C-39.64003225 77.55251887 -42.03126404 79.93803765 -44.421875 82.32421875 C-45.16661072 83.06379318 -45.91134644 83.80336761 -46.6786499 84.56535339 C-47.36316223 85.24979019 -48.04767456 85.93422699 -48.75292969 86.6394043 C-49.35739929 87.24165329 -49.9618689 87.84390228 -50.58465576 88.46440125 C-52.09691718 89.96271971 -52.09691718 89.96271971 -53 92 C-54.80566406 92.85131836 -54.80566406 92.85131836 -57 93 C-59.01464844 91.55297852 -59.01464844 91.55297852 -61.109375 89.37890625 C-61.86347656 88.60869141 -62.61757813 87.83847656 -63.39453125 87.04492188 C-64.17183594 86.22572266 -64.94914062 85.40652344 -65.75 84.5625 C-66.54277344 83.74716797 -67.33554687 82.93183594 -68.15234375 82.09179688 C-70.11318312 80.07189608 -72.0614649 78.04127872 -74 76 C-72.68634063 73.09702266 -71.27927877 71.03091891 -69.02609253 68.7855835 C-68.41752411 68.17426575 -67.80895569 67.562948 -67.1819458 66.93310547 C-66.18285187 65.94479736 -66.18285187 65.94479736 -65.16357422 64.93652344 C-64.46102509 64.23368225 -63.75847595 63.53084106 -63.03463745 62.80670166 C-60.71269689 60.48615375 -58.38375372 58.1727692 -56.0546875 55.859375 C-54.44285268 54.25127053 -52.83145903 52.64272375 -51.2204895 51.03375244 C-46.98012971 46.80102735 -42.73379794 42.57434285 -38.48620605 38.34887695 C-34.15255457 34.03568729 -29.82456212 29.71682751 -25.49609375 25.3984375 C-17.00293327 16.92672409 -8.50345472 8.46137967 0 0 Z " fill="#EB7A60" transform="translate(375,308)"/>
<path d="M0 0 C0.66 0 1.32 0 2 0 C4.24226132 5.34650443 6.48335087 10.69349839 8.72363281 16.04083252 C9.53143104 17.96849222 10.33953543 19.89602366 11.14794922 21.82342529 C15.77272579 32.85019423 20.37444701 43.88548047 24.91015625 54.94921875 C25.68945029 56.84581911 26.46882699 58.74238551 27.24829102 60.63891602 C28.37278316 63.37524172 29.49488432 66.11242389 30.60958862 68.85275269 C31.64013646 71.38604344 32.6786307 73.91593987 33.71875 76.4453125 C34.0231752 77.2005571 34.3276004 77.9558017 34.64125061 78.7339325 C35.99553765 82.56054854 35.99553765 82.56054854 39 85 C39.13083984 85.82072998 39.26167969 86.64145996 39.39648438 87.48706055 C40.17954485 92.04509339 41.86501204 95.96054538 43.65625 100.20703125 C44.03062195 101.10895203 44.4049939 102.0108728 44.79071045 102.94012451 C46.02103035 105.9001699 47.26029511 108.85637426 48.5 111.8125 C49.35828522 113.87013707 50.21602622 115.92800123 51.07324219 117.98608398 C52.39432568 121.15713724 53.71608634 124.32789576 55.04046631 127.49757385 C57.98808028 134.55447562 60.90280197 141.62411685 63.796875 148.703125 C64.92242451 151.44823747 66.04860868 154.19308858 67.17504883 156.93783569 C67.88220818 158.66447776 68.58718573 160.39201529 69.28979492 162.12051392 C75.15505568 176.53892652 80.8442763 189.8442763 92 201 C78.14 201 64.28 201 50 201 C51.98 198.03 51.98 198.03 54 195 C57.1539584 182.54650251 47.26420943 166.02464163 42.5 154.8125 C41.49675287 152.43543042 40.49527235 150.05762377 39.4942627 147.67961121 C38.8770728 146.21511518 38.25831836 144.75127694 37.63757324 143.2882843 C35.34957337 137.88478271 33.18073331 132.45183327 31 127 C7.9 127 -15.2 127 -39 127 C-42.09375 134.755 -45.1875 142.51 -48.375 150.5 C-49.83558838 154.1496582 -49.83558838 154.1496582 -51.32568359 157.87304688 C-52.10033826 159.82145426 -52.87461469 161.77001209 -53.6484375 163.71875 C-54.04844971 164.71422852 -54.44846191 165.70970703 -54.8605957 166.73535156 C-60.47718953 180.79409529 -60.47718953 180.79409529 -58.6875 195.375 C-56.98539546 198.22703418 -56.98539546 198.22703418 -54 201 C-65.88 201 -77.76 201 -90 201 C-88.02 198.69 -86.04 196.38 -84 194 C-79.70919014 188.1200013 -76.78071086 181.49794449 -73.82421875 174.8828125 C-73.43048065 174.00431137 -73.03674255 173.12581024 -72.631073 172.22068787 C-68.86132838 163.76498641 -65.26550276 155.24049404 -61.71606445 146.69042969 C-59.77765291 142.02158612 -57.82949257 137.3568068 -55.8828125 132.69140625 C-55.48076599 131.72719757 -55.07871948 130.76298889 -54.66448975 129.76956177 C-50.30989771 119.33217685 -45.9056932 108.91589047 -41.5 98.5 C-33.27125405 79.03737795 -25.09386278 59.5536018 -16.9495697 40.05549622 C-15.12370629 35.68502296 -13.29425583 31.31610142 -11.45811462 26.94993591 C-10.72060658 25.19592469 -9.98441772 23.44135897 -9.24829102 21.68676758 C-8.40982589 19.68828774 -7.56936044 17.6906452 -6.72631836 15.6940918 C-6.37190674 14.84758057 -6.01749512 14.00106934 -5.65234375 13.12890625 C-5.35320068 12.41806885 -5.05405762 11.70723145 -4.74584961 10.97485352 C-4.00098195 9.00259999 -3.46779849 7.05399521 -3 5 C-2.34 5 -1.68 5 -1 5 C-0.67 3.35 -0.34 1.7 0 0 Z " fill="#EB7B61" transform="translate(203,433)"/>
<path d="M0 0 C7.53085185 5.53899611 11.34205612 13.34483817 13.125 22.375 C14.0601991 28.95518503 14.28442438 35.46699122 14.3359375 42.10546875 C14.36397925 44.14519069 14.39264348 46.18490414 14.421875 48.22460938 C14.46323573 51.40421548 14.50017429 54.58365826 14.52636719 57.76342773 C14.55398561 60.85692875 14.59981773 63.94973599 14.6484375 67.04296875 C14.65169037 67.9899614 14.65494324 68.93695404 14.65829468 69.91264343 C14.75552848 75.1448563 15.21452718 78.84359553 18.125 83.375 C23.01079449 88.02866399 28.55672672 89.2077523 35.125 89.375 C33.49949338 91.10537802 31.85039891 92.74635243 30.125 94.375 C29.47015625 94.99890625 28.8153125 95.6228125 28.140625 96.265625 C24.31045128 99.60684037 21.3087979 101.8589575 16.125 102.125 C10.11421985 101.6568707 4.80048817 99.25962336 0.67578125 94.8125 C-1.18835536 92.19616791 -1.875 90.61575007 -1.875 87.375 C-2.535 87.375 -3.195 87.375 -3.875 87.375 C-4.1328125 87.973125 -4.390625 88.57125 -4.65625 89.1875 C-8.3956406 95.89922672 -16.8473918 99.25784989 -23.875 101.375 C-26.56981729 101.89390495 -29.13144624 102.1717738 -31.875 102.375 C-31.875 103.035 -31.875 103.695 -31.875 104.375 C-32.535 104.375 -33.195 104.375 -33.875 104.375 C-33.875 103.715 -33.875 103.055 -33.875 102.375 C-35.15375 102.313125 -36.4325 102.25125 -37.75 102.1875 C-45.37430297 101.30039557 -51.60509953 98.1459184 -56.8125 92.5 C-62.04770808 85.84486521 -63.51889333 80.07574359 -63.27734375 71.66015625 C-62.39548707 64.45975363 -59.35974991 59.25938528 -53.875 54.5625 C-42.29568842 46.39340165 -28.60915115 43.9969537 -14.75 44.25 C-13.79351563 44.25902344 -12.83703125 44.26804687 -11.8515625 44.27734375 C-9.52576475 44.30060173 -7.20052706 44.33327787 -4.875 44.375 C-5.11381446 27.58621691 -5.11381446 27.58621691 -12.875 13.375 C-20.45960714 8.17343529 -29.96156664 8.19824476 -38.875 9.375 C-44.95987985 11.56491028 -48.88808774 15.76883174 -52.01171875 21.33984375 C-53.30267663 24.38323314 -53.66924937 27.08298984 -53.875 30.375 C-57.49903933 27.06609453 -58.08658186 24.05589502 -58.3125 19.25 C-58.23649554 12.85718049 -56.12976491 9.03975296 -51.875 4.375 C-38.51785159 -8.66204246 -15.67798874 -9.39114134 0 0 Z " fill="#EC7D63" transform="translate(833.875,535.625)"/>
<path d="M0 0 C11.11055597 7.70017296 17.75662055 18.31766018 20.57421875 31.44921875 C20.92878301 34.51858099 20.8359375 37.62507024 20.8359375 40.71484375 C-3.2540625 40.71484375 -27.3440625 40.71484375 -52.1640625 40.71484375 C-50.03770914 55.59931725 -47.34978575 68.31059677 -35.4140625 77.96484375 C-25.00892193 85.13674855 -14.78095723 86.29445988 -2.37109375 84.01953125 C4.81728565 82.18583961 10.42103707 79.81659331 15.8359375 74.71484375 C16.36058594 74.22113281 16.88523437 73.72742188 17.42578125 73.21875 C18.59107039 72.07928445 19.71892328 70.90167135 20.8359375 69.71484375 C17.7730782 81.24697308 13.30609899 89.88120985 3.046875 96.51953125 C-5.00228704 101.05396485 -11.23486521 101.91344588 -20.3515625 101.96484375 C-21.24681641 101.98546875 -22.14207031 102.00609375 -23.06445312 102.02734375 C-36.13726633 102.10285458 -45.32275229 97.226637 -54.8515625 88.52734375 C-66.74081152 76.01974135 -69.61911991 60.80502286 -69.375 44.26171875 C-68.86538268 29.04869787 -62.05344441 16.12107902 -51.1640625 5.71484375 C-37.0407463 -6.8392151 -16.4946227 -9.79554308 0 0 Z " fill="#EC7C62" transform="translate(599.1640625,535.28515625)"/>
<path d="M0 0 C10.56 0 21.12 0 32 0 C32.02578125 5.00929688 32.0515625 10.01859375 32.078125 15.1796875 C32.10331766 18.36984148 32.129669 21.55990292 32.16015625 24.75 C32.20834463 29.80371341 32.25244396 34.85721236 32.27099609 39.91113281 C32.28623826 43.98979591 32.32081568 48.06789458 32.36830902 52.14630508 C32.38304545 53.6954162 32.39103653 55.24460794 32.39188385 56.79378891 C32.30681054 70.82558858 32.30681054 70.82558858 38.72027588 82.92770386 C44.78441591 88.68976646 51.55034183 89.52859942 59.67578125 89.37109375 C65.81043002 88.68626222 70.60415877 86.46918331 74.9140625 82.02734375 C78.98747245 76.86318658 80.11537078 73.00572926 80.16113281 66.44042969 C80.17074036 65.32537048 80.1803479 64.21031128 80.19024658 63.0614624 C80.19449646 61.86039856 80.19874634 60.65933472 80.203125 59.421875 C80.20882507 58.18133362 80.21452515 56.94079224 80.22039795 55.66265869 C80.22984469 53.03667045 80.23638064 50.41067037 80.24023438 47.78466797 C80.24462022 45.10191248 80.25851766 42.4194784 80.28125 39.73681641 C80.31178027 35.86090367 80.32229036 31.98539474 80.328125 28.109375 C80.3466452 26.31992462 80.3466452 26.31992462 80.36553955 24.49432373 C80.34438665 16.54608542 79.93294489 10.29062109 74.4375 4.125 C73.633125 3.42375 72.82875 2.7225 72 2 C71.01 1.01 71.01 1.01 70 0 C79.57 0 89.14 0 99 0 C99.01458252 2.28542725 99.02916504 4.57085449 99.04418945 6.92553711 C99.09466831 14.50127556 99.16128646 22.07681133 99.23571491 29.65235043 C99.28032271 34.24258077 99.31959966 38.83272432 99.34643555 43.4230957 C99.37256462 47.85827544 99.41303404 52.29311945 99.46318626 56.72809029 C99.47979031 58.41479865 99.49134464 60.10156499 99.49761391 61.78834343 C99.01336786 76.2116467 99.01336786 76.2116467 105.4375 88.4375 C107.59073833 89.7504502 109.73917819 90.8911893 112 92 C108.07071564 93.85873821 104.13799181 95.70992725 100.2019043 97.55419922 C98.86336742 98.18266751 97.52579269 98.81318926 96.18920898 99.44580078 C94.26795662 100.35470368 92.34336622 101.2561678 90.41796875 102.15625 C88.68196411 102.97319336 88.68196411 102.97319336 86.91088867 103.80664062 C84 105 84 105 81 105 C80.67 99.39 80.34 93.78 80 88 C78.88625 89.36125 77.7725 90.7225 76.625 92.125 C72.34167123 96.95610794 67.7580133 100.1350831 62 103 C61.25621094 103.37640625 60.51242187 103.7528125 59.74609375 104.140625 C55.89311911 105.34639231 52.26542014 105.34149519 48.25 105.3125 C47.44449707 105.30686035 46.63899414 105.3012207 45.80908203 105.29541016 C36.12548369 105.09730535 29.17797971 102.688572 22 96 C9.78849807 80.48809215 12.79252105 58.01726799 13.11645508 39.47387695 C13.16500506 36.46306032 13.19465558 33.45247402 13.22265625 30.44140625 C13.24441422 29.54015518 13.26617218 28.63890411 13.28858948 27.71034241 C13.34985476 19.77637301 12.22413293 11.4249797 6.5 5.5 C5.9121875 4.8709375 5.324375 4.241875 4.71875 3.59375 C2.88440921 1.8081062 2.88440921 1.8081062 0 0 Z " fill="#EB7B62" transform="translate(307,532)"/>
<path d="M0 0 C0.00238835 0.97514494 0.00477671 1.95028988 0.00723743 2.95498466 C0.0660755 26.70066097 0.14198501 50.44623617 0.23571491 74.19180107 C0.28064856 85.67505856 0.32006889 97.1582852 0.34643555 108.64160156 C0.36943525 118.65239972 0.40285543 128.66310006 0.44870156 138.67382061 C0.47260706 143.97265448 0.49135339 149.27139164 0.49761391 154.57027817 C0.50367679 159.56238096 0.5237203 164.55423639 0.55427551 169.54624748 C0.56303642 171.37389468 0.56678237 173.20157423 0.56500816 175.02924156 C0.45229036 191.34380845 0.45229036 191.34380845 7 206 C7.99 206.99 7.99 206.99 9 208 C-2.88 208 -14.76 208 -27 208 C-25.35 205.69 -23.7 203.38 -22 201 C-18.01802157 192.87699813 -18.5739783 183.77476647 -18.61181641 174.95288086 C-18.60774444 173.35026188 -18.60239907 171.74764571 -18.59588623 170.14503479 C-18.58228218 165.8186435 -18.58748223 161.49246833 -18.59702349 157.16607356 C-18.60465477 152.62459049 -18.597565 148.08312509 -18.59286499 143.54164124 C-18.58741806 135.91827088 -18.59457168 128.29498792 -18.60888672 120.67163086 C-18.62521705 111.87376943 -18.61991767 103.07611656 -18.6034075 94.27826017 C-18.58976929 86.70598795 -18.5878842 79.13377829 -18.59572351 71.56149775 C-18.60038645 67.04698016 -18.60106285 62.53256044 -18.59111404 58.01804924 C-18.58241237 53.77355809 -18.58852438 49.52933448 -18.60579681 45.28487206 C-18.60974438 43.73253065 -18.60865745 42.18016651 -18.60200882 40.62783432 C-18.57083923 32.60748149 -18.66150209 25.43094481 -22 18 C-24.13508018 16.43114328 -24.13508018 16.43114328 -26.625 16.125 C-29.0390625 15.6328125 -29.0390625 15.6328125 -31 15 C-31.33 14.01 -31.66 13.02 -32 12 C-31.10023438 11.94972656 -30.20046875 11.89945312 -29.2734375 11.84765625 C-23.30643442 10.99544196 -18.0090327 8.00758951 -12.625 5.4375 C-10.45116451 4.41399636 -8.27671966 3.39178558 -6.1015625 2.37109375 C-5.14588379 1.91661865 -4.19020508 1.46214355 -3.20556641 0.99389648 C-1 0 -1 0 0 0 Z " fill="#EC7A61" transform="translate(672,426)"/>
<path d="M0 0 C0.33 7.59 0.66 15.18 1 23 C2.98 20.36 4.96 17.72 7 15 C13.51494674 7.98390351 20.86789631 0.32549198 30.91015625 -0.1328125 C31.95042969 -0.13023437 32.99070312 -0.12765625 34.0625 -0.125 C35.62677734 -0.12886719 35.62677734 -0.12886719 37.22265625 -0.1328125 C40 0 40 0 43 1 C43 8.59 43 16.18 43 24 C41.02 22.68 39.04 21.36 37 20 C31.22568392 17.15376231 25.30355173 17.25392745 19 18 C12.6604844 20.41220562 8.53355244 24.89155947 5.55078125 30.9375 C5.14214844 31.948125 4.73351562 32.95875 4.3125 34 C3.89613281 35.010625 3.47976563 36.02125 3.05078125 37.0625 C1.03888227 42.68684212 0.8278317 47.90532788 0.796875 53.81640625 C0.78832489 55.09486671 0.78832489 55.09486671 0.77960205 56.39915466 C0.77017518 58.20204436 0.76362728 60.00495112 0.75976562 61.80786133 C0.75011831 64.5291265 0.71909748 67.2496168 0.6875 69.97070312 C0.60317148 83.1907153 1.06859644 92.89603501 9 104 C-2.55 104 -14.1 104 -26 104 C-24.02 100.7 -22.04 97.4 -20 94 C-19.06770515 90.2708206 -18.86161156 87.39823946 -18.83886719 83.58251953 C-18.82445587 81.6299675 -18.82445587 81.6299675 -18.80975342 79.63796997 C-18.80490539 78.21958594 -18.80062657 76.80119986 -18.796875 75.3828125 C-18.79111905 73.9231669 -18.78536138 72.46352132 -18.77960205 71.00387573 C-18.76910933 67.94577687 -18.76325523 64.88770416 -18.75976562 61.82958984 C-18.75428159 57.92008533 -18.73024854 54.0109292 -18.70179367 50.10153389 C-18.68312803 47.08685306 -18.67795963 44.07225555 -18.67642975 41.05752182 C-18.67341202 39.61667855 -18.66541328 38.17583645 -18.65224457 36.7350502 C-18.6351022 34.71552732 -18.63892092 32.69585985 -18.64355469 30.67626953 C-18.63808624 28.9556279 -18.63808624 28.9556279 -18.63250732 27.20022583 C-19.12932534 22.87379992 -20.58229808 19.48324045 -23.60546875 16.3203125 C-24.12753906 15.92585937 -24.64960938 15.53140625 -25.1875 15.125 C-26.115625 14.42375 -27.04375 13.7225 -28 13 C-25.03175226 10.59987131 -22.1144554 9.02743734 -18.61328125 7.51953125 C-17.59298828 7.07802734 -16.57269531 6.63652344 -15.52148438 6.18164062 C-14.46251953 5.72982422 -13.40355469 5.27800781 -12.3125 4.8125 C-11.24193359 4.34908203 -10.17136719 3.88566406 -9.06835938 3.40820312 C-1.15269468 0 -1.15269468 0 0 0 Z " fill="#EC7B62" transform="translate(469,530)"/>
<path d="M0 0 C0.66 0 1.32 0 2 0 C3.125 3.75 3.125 3.75 2 6 C3.485 6.495 3.485 6.495 5 7 C6.20685028 9.41026332 7.21898152 11.7365658 8.1875 14.2421875 C8.48679916 14.98974304 8.78609833 15.73729858 9.09446716 16.50750732 C10.07346231 18.95931265 11.03679085 21.41695513 12 23.875 C12.66826308 25.55821276 13.33762123 27.24099116 14.00805664 28.92333984 C15.02438333 31.47488256 16.03958969 34.02682692 17.05030823 36.58059692 C19.13887585 41.85683475 21.26390518 47.11599485 23.43359375 52.359375 C23.69330963 52.98840729 23.95302551 53.61743958 24.22061157 54.26553345 C25.42558186 57.18274609 26.63479118 60.09810316 27.84960938 63.01123047 C28.26919922 64.03104004 28.68878906 65.05084961 29.12109375 66.1015625 C29.4864624 66.98150879 29.85183105 67.86145508 30.22827148 68.76806641 C31 71 31 71 31 74 C11.2 74 -8.6 74 -29 74 C-25.62484557 62.74948522 -25.62484557 62.74948522 -23.38037109 57.20507812 C-23.13770004 56.60210907 -22.89502899 55.99914001 -22.64500427 55.37789917 C-21.85872372 53.42727099 -21.06620772 51.47924854 -20.2734375 49.53125 C-19.71924846 48.16042631 -19.16543223 46.78945185 -18.61196899 45.41833496 C-17.16639013 41.84029088 -15.7153551 38.2644842 -14.26324463 34.68908691 C-13.07460192 31.75966622 -11.8899519 28.82863892 -10.70548058 25.8975296 C-9.29197624 22.39989249 -7.87670611 18.90297111 -6.4609375 15.40625 C-6.1913258 14.74021255 -5.9217141 14.07417511 -5.64393234 13.38795471 C-4.88385308 11.51150596 -4.12238087 9.63562161 -3.36083984 7.75976562 C-2.92798676 6.69294556 -2.49513367 5.62612549 -2.04916382 4.52697754 C-1.41402291 2.99720042 -0.74075934 1.48151868 0 0 Z " fill="#FEFCFC" transform="translate(198,474)"/>
<path d="M0 0 C0.00879936 1.60160477 0.00879936 1.60160477 0.01777649 3.23556519 C0.07514046 13.32787088 0.14797305 23.41996393 0.23571491 33.51205254 C0.28032662 38.69975081 0.31960286 43.8873722 0.34643555 49.07519531 C0.37256048 54.08742194 0.41302739 59.09935129 0.46318626 64.11139297 C0.47979302 66.01777557 0.49134567 67.92420952 0.49761391 69.83065414 C0.43576635 83.69866807 0.43576635 83.69866807 4 97 C4.33 98.010625 4.66 99.02125 5 100.0625 C5.89698316 102.35342991 5.89698316 102.35342991 9 103 C9 103.33 9 103.66 9 104 C-2.88 104 -14.76 104 -27 104 C-25.35 101.69 -23.7 99.38 -22 97 C-18.07654584 89.15309168 -18.81216192 80.01673978 -18.76171875 71.47265625 C-18.753647 70.16977158 -18.74557526 68.8668869 -18.73725891 67.52452087 C-18.72230597 64.77521908 -18.71243111 62.02594243 -18.70483398 59.27661133 C-18.69375579 55.77193938 -18.65930912 52.26789983 -18.61966228 48.76345158 C-18.58710056 45.39571303 -18.58271211 42.02803993 -18.57421875 38.66015625 C-18.54795662 36.78639061 -18.54795662 36.78639061 -18.52116394 34.87477112 C-18.53872968 27.80152285 -18.99766475 22.93025434 -23 17 C-25.33606072 15.52603512 -27.32552762 14.82291458 -30 14 C-27.49184257 11.08193248 -24.80949037 9.83019169 -21.30859375 8.30078125 C-20.19935547 7.81416016 -19.09011719 7.32753906 -17.94726562 6.82617188 C-16.78904297 6.32666016 -15.63082031 5.82714844 -14.4375 5.3125 C-13.27541016 4.80138672 -12.11332031 4.29027344 -10.91601562 3.76367188 C-2.27816255 0 -2.27816255 0 0 0 Z " fill="#EB7A61" transform="translate(735,530)"/>
<path d="M0 0 C0.08767555 3.37483413 0.14061628 6.74937215 0.1875 10.125 C0.21263672 11.07632813 0.23777344 12.02765625 0.26367188 13.0078125 C0.3459625 20.90771254 -1.4689353 26.16165393 -7 32 C-14.3458069 36.90818488 -20.20877409 37.9197633 -29 37 C-33.13686158 35.34215659 -35.14565743 32.17284857 -36.875 28.1875 C-38.41880603 23.23058064 -39.21007107 18.72888455 -37.05078125 13.859375 C-32.89966745 6.78807704 -28.31439318 3.71875677 -20.47265625 1.59375 C-13.61100422 -0.05391368 -7.01220132 -0.09511542 0 0 Z " fill="#FEFDFC" transform="translate(829,588)"/>
<path d="M0 0 C6.22783047 4.52122662 10.73085583 9.23592332 12.625 16.8125 C12.625 19.7825 12.625 22.7525 12.625 25.8125 C-4.205 25.8125 -21.035 25.8125 -38.375 25.8125 C-35.91701913 14.75158608 -32.8611892 7.74461032 -23.5234375 1.15234375 C-16.56946878 -3.18440401 -7.2338321 -4.35673979 0 0 Z " fill="#FEFBFA" transform="translate(585.375,541.1875)"/>
<path d="M0 0 C3.24615862 1.59438046 5.19562862 3.93969227 7.375 6.8125 C8.84642784 11.96249742 8.70719826 15.66137471 6.25 20.3125 C3.53217213 23.5587944 1.65164858 25.72677646 -2.62109375 26.43359375 C-10.22276029 26.44413698 -10.22276029 26.44413698 -14.0625 24.25 C-18.06994123 19.59619728 -18.483199 15.73253168 -18.39453125 9.703125 C-17.77785812 5.4779982 -16.12793255 3.83003421 -13 1 C-9.0327265 -0.98363675 -4.3131746 -0.54751158 0 0 Z " fill="#EB7C62" transform="translate(731,469)"/>
<path d="M0 0 C2.6875 0.3125 2.6875 0.3125 5 1 C5.625 3.375 5.625 3.375 6 6 C4 8 4 8 1.375 8.125 C0.59125 8.08375 -0.1925 8.0425 -1 8 C-1.66 6.35 -2.32 4.7 -3 3 C-1.8125 1.4375 -1.8125 1.4375 0 0 Z " fill="#F2E6E1" transform="translate(724,478)"/>
</svg>
